<!DOCTYPE svg PUBLIC "-//W3C//DTD SVG 20010904//EN" "http://www.w3.org/TR/2001/REC-SVG-20010904/DTD/svg10.dtd">
<svg version="1.0" xmlns="http://www.w3.org/2000/svg" width="1024px" height="768px" viewBox="0 0 10240 7680" preserveAspectRatio="xMidYMid meet">
<g id="layer101" fill="#000000" stroke="none">
 <path d="M0 3840 l0 -3840 5120 0 5120 0 0 3840 0 3840 -5120 0 -5120 0 0 -3840z"/>
 </g>
<g id="layer102" fill="#232c43" stroke="none">
 <path d="M2030 5762 c-130 -8 -424 -84 -618 -159 -92 -35 -234 -129 -227 -150 2 -7 -1 -15 -7 -19 -7 -4 -8 -3 -4 4 4 7 1 12 -9 12 -11 0 -15 -5 -12 -14 9 -22 -59 -78 -84 -71 -15 5 -54 -29 -182 -157 -90 -90 -175 -179 -188 -199 -13 -20 -50 -70 -81 -110 -53 -69 -128 -208 -128 -236 0 -7 -6 -32 -14 -55 -33 -106 -38 -126 -34 -139 2 -7 15 17 27 52 24 66 88 199 96 199 2 0 -11 -33 -29 -72 -18 -40 -43 -109 -56 -153 -12 -44 -29 -101 -37 -127 -8 -26 -13 -56 -11 -65 2 -10 17 23 32 72 15 50 35 106 43 125 8 19 18 44 23 55 4 11 38 82 76 159 50 101 86 158 132 210 34 39 68 73 75 75 6 2 2 -7 -10 -20 -64 -71 -226 -343 -270 -454 -6 -17 -19 -48 -27 -69 -67 -163 -96 -519 -61 -741 18 -114 55 -265 65 -265 4 0 1 30 -6 68 -31 159 -46 262 -46 332 -2 157 32 421 69 530 24 70 160 347 187 380 7 8 23 33 35 55 59 103 140 200 245 292 71 63 101 84 84 61 -51 -67 -30 -66 43 2 90 83 324 231 489 308 235 110 511 142 800 92 196 -34 527 -182 705 -315 102 -76 162 -133 258 -242 127 -147 185 -243 295 -485 27 -60 77 -250 96 -365 22 -132 15 -469 -12 -583 -79 -329 -197 -545 -427 -775 -119 -119 -205 -192 -300 -254 -115 -75 -154 -95 -320 -165 -168 -72 -482 -100 -690 -62 -249 45 -497 141 -674 259 -25 17 -119 105 -208 194 -173 175 -227 213 -298 213 -65 0 -88 -24 -93 -96 -3 -41 1 -72 12 -98 9 -22 15 -41 13 -43 -3 -2 -16 1 -31 6 -45 18 -33 -5 80 -150 84 -107 207 -231 274 -275 19 -13 61 -41 94 -64 32 -22 59 -40 61 -40 1 0 34 -18 71 -40 135 -79 360 -156 559 -192 172 -31 480 -31 643 0 381 73 702 246 976 526 233 240 465 620 531 871 27 103 79 444 69 454 -3 3 -9 -1 -14 -9 -7 -10 -10 4 -11 45 -6 349 -138 781 -322 1052 -110 162 -241 294 -484 484 -216 169 -445 271 -713 318 -108 19 -391 31 -520 23z m-450 -147 c0 -8 -81 -42 -180 -75 -52 -18 -103 -37 -114 -42 -14 -8 -17 -7 -11 2 11 18 140 76 208 93 33 9 62 18 65 21 7 7 32 8 32 1z m-148 -183 c-13 -10 -40 -27 -60 -37 -21 -11 -55 -31 -77 -45 -64 -42 -72 -46 -51 -22 11 12 58 45 105 72 86 50 126 65 83 32z m-502 -338 c-25 -25 -58 -55 -73 -66 -50 -36 -12 10 52 64 71 59 77 60 21 2z"/>
 <path d="M8190 5530 l0 -130 89 0 c74 0 92 3 115 21 28 22 35 66 15 86 -8 8 -7 17 5 34 24 35 20 74 -10 98 -23 18 -41 21 -120 21 l-94 0 0 -130z m195 87 c13 -10 16 -21 12 -39 -8 -30 -30 -38 -114 -38 l-63 0 0 45 0 45 73 0 c46 0 80 -5 92 -13z m-14 -117 c21 -12 25 -40 7 -58 -7 -7 -42 -12 -85 -12 l-73 0 0 40 0 40 66 0 c36 0 74 -5 85 -10z"/>
 <path d="M8544 5650 c-28 -11 -54 -48 -54 -78 0 -77 102 -118 177 -72 57 34 57 106 0 140 -33 21 -87 25 -123 10z m119 -49 c48 -47 -22 -106 -98 -81 -36 12 -51 37 -40 69 13 43 100 50 138 12z"/>
 <path d="M8800 5570 c0 -112 9 -115 82 -26 l53 65 3 -65 c2 -48 7 -64 17 -64 12 0 15 18 15 90 0 112 -9 115 -82 26 l-53 -65 -3 65 c-2 48 -7 64 -17 64 -12 0 -15 -18 -15 -90z"/>
 <path d="M9095 5653 c-11 -3 -26 -10 -33 -16 -23 -18 2 -26 45 -14 48 13 98 1 98 -23 0 -11 -16 -16 -60 -20 -71 -6 -85 -13 -85 -45 0 -47 68 -69 139 -44 30 11 39 38 10 30 -36 -9 -95 -11 -108 -3 -24 17 -1 32 47 32 56 0 92 22 92 55 0 44 -68 67 -145 48z"/>
 <path d="M9280 5656 c0 -2 21 -43 46 -90 30 -56 51 -86 62 -86 11 0 34 32 64 90 42 80 45 90 28 90 -11 0 -24 -9 -30 -20 -9 -16 -21 -20 -65 -20 -44 0 -56 4 -65 20 -9 17 -40 29 -40 16z m140 -71 c0 -10 -31 -67 -34 -63 -2 1 -11 18 -20 36 l-17 32 36 0 c19 0 35 -2 35 -5z"/>
 <path d="M9560 5570 c0 -73 3 -90 15 -90 12 0 15 17 15 90 0 73 -3 90 -15 90 -12 0 -15 -17 -15 -90z"/>
 <path d="M6260 5150 c0 -144 2 -170 15 -170 13 0 15 26 15 170 0 144 -2 170 -15 170 -13 0 -15 -26 -15 -170z"/>
 <path d="M3860 5110 c0 -109 2 -130 15 -130 8 0 52 47 98 105 l82 105 3 -105 c2 -84 6 -105 17 -105 12 0 15 22 15 130 0 108 -3 130 -15 130 -8 0 -53 -48 -100 -106 l-85 -106 0 106 c0 88 -3 106 -15 106 -13 0 -15 -21 -15 -130z"/>
 <path d="M4160 5236 c0 -2 21 -43 46 -90 30 -56 51 -86 62 -86 11 0 34 32 64 90 42 80 45 90 28 90 -11 0 -24 -9 -30 -20 -9 -16 -21 -20 -65 -20 -44 0 -56 4 -65 20 -9 17 -40 29 -40 16z m140 -71 c0 -10 -31 -67 -34 -63 -2 1 -11 18 -20 36 l-17 32 36 0 c19 0 35 -2 35 -5z"/>
 <path d="M4440 5150 c0 -112 9 -115 82 -26 l53 65 3 -65 c2 -48 7 -64 17 -64 12 0 15 18 15 90 0 112 -9 115 -82 26 l-53 -65 -3 65 c-2 48 -7 64 -17 64 -12 0 -15 -18 -15 -90z"/>
 <path d="M4850 5110 l0 -130 105 0 c87 0 105 3 105 15 0 12 -17 15 -90 15 l-90 0 0 40 0 40 55 0 c42 0 55 3 55 15 0 12 -13 15 -55 15 l-55 0 0 60 c0 47 -3 60 -15 60 -13 0 -15 -21 -15 -130z"/>
 <path d="M5166 5219 c-24 -19 -26 -27 -26 -90 0 -55 3 -69 15 -69 12 0 15 14 15 65 0 60 2 66 25 77 18 8 35 9 53 2 25 -9 27 -14 30 -77 2 -51 6 -67 17 -67 12 0 15 15 15 69 0 63 -2 71 -26 90 -15 12 -41 21 -59 21 -18 0 -44 -9 -59 -21z"/>
 <path d="M5550 5110 l0 -130 105 0 c87 0 105 3 105 15 0 12 -17 15 -90 15 l-90 0 0 40 0 40 45 0 c33 0 45 4 45 15 0 11 -12 15 -45 15 l-45 0 0 45 0 45 95 0 c78 0 95 3 95 15 0 12 -19 15 -110 15 l-110 0 0 -130z"/>
 <path d="M5850 5150 c0 -112 9 -115 82 -26 l53 65 3 -65 c2 -48 7 -64 17 -64 12 0 15 18 15 90 0 112 -9 115 -82 26 l-53 -65 -3 65 c-2 48 -7 64 -17 64 -12 0 -15 -18 -15 -90z"/>
 <path d="M6529 5114 c-32 -69 -59 -128 -59 -130 0 -2 7 -4 16 -4 10 0 33 38 66 108 l51 107 50 -107 c36 -78 55 -108 68 -108 15 0 8 22 -43 130 -35 75 -67 130 -75 130 -8 0 -40 -54 -74 -126z"/>
 <path d="M6800 5150 c0 -73 3 -90 15 -90 12 0 15 17 15 90 0 73 -3 90 -15 90 -12 0 -15 -17 -15 -90z"/>
 <path d="M6940 5150 l0 -90 80 0 c64 0 80 3 80 15 0 12 -14 15 -65 15 -58 0 -65 2 -65 20 0 16 7 20 35 20 24 0 35 5 35 15 0 10 -11 15 -35 15 -31 0 -35 3 -35 25 0 24 2 25 65 25 51 0 65 3 65 15 0 12 -16 15 -80 15 l-80 0 0 -90z"/>
 <path d="M7180 5150 c0 -112 9 -115 82 -26 l53 65 3 -65 c2 -48 7 -64 17 -64 12 0 15 18 15 90 0 112 -9 115 -82 26 l-53 -65 -3 65 c-2 48 -7 64 -17 64 -12 0 -15 -18 -15 -90z"/>
 <path d="M7500 5165 l0 -75 -35 0 c-24 0 -35 -5 -35 -15 0 -12 16 -15 85 -15 69 0 85 3 85 15 0 10 -11 15 -35 15 l-35 0 0 75 c0 60 -3 75 -15 75 -12 0 -15 -15 -15 -75z"/>
 <path d="M7704 5230 c-28 -11 -54 -48 -54 -78 0 -77 102 -118 177 -72 57 34 57 106 0 140 -33 21 -87 25 -123 10z m119 -49 c48 -47 -22 -106 -98 -81 -36 12 -51 37 -40 69 13 43 100 50 138 12z"/>
 <path d="M8090 5150 l0 -90 66 0 c59 0 68 3 95 29 20 20 29 39 29 61 0 22 -9 41 -29 61 -27 26 -36 29 -95 29 l-66 0 0 -90z m140 40 c46 -46 10 -100 -67 -100 l-43 0 0 60 0 60 45 0 c32 0 51 -6 65 -20z"/>
 <path d="M8360 5150 l0 -90 80 0 c64 0 80 3 80 15 0 12 -14 15 -65 15 -58 0 -65 2 -65 20 0 16 7 20 35 20 24 0 35 5 35 15 0 10 -11 15 -35 15 -31 0 -35 3 -35 25 0 24 2 25 65 25 51 0 65 3 65 15 0 12 -16 15 -80 15 l-80 0 0 -90z"/>
 <path d="M8600 5150 c0 -73 3 -90 15 -90 12 0 15 15 15 75 l0 75 55 0 c42 0 55 3 55 15 0 12 -14 15 -70 15 l-70 0 0 -90z"/>
 <path d="M8945 5233 c-11 -3 -26 -10 -33 -16 -23 -18 2 -26 45 -14 48 13 98 1 98 -23 0 -11 -16 -16 -60 -20 -71 -6 -85 -13 -85 -45 0 -47 68 -69 139 -44 30 11 39 38 10 30 -36 -9 -95 -11 -108 -3 -24 17 -1 32 47 32 56 0 92 22 92 55 0 44 -68 67 -145 48z"/>
 <path d="M9196 5219 c-24 -19 -26 -27 -26 -90 0 -55 3 -69 15 -69 12 0 15 14 15 65 0 60 2 66 25 77 18 8 35 9 53 2 25 -9 27 -14 30 -77 2 -51 6 -67 17 -67 12 0 15 15 15 69 0 63 -2 71 -26 90 -15 12 -41 21 -59 21 -18 0 -44 -9 -59 -21z"/>
 <path d="M9450 5150 l0 -90 73 0 c59 0 77 4 90 18 23 25 21 51 -5 79 -19 21 -20 25 -6 40 27 32 30 43 11 43 -10 0 -29 -16 -42 -35 -19 -28 -30 -35 -57 -35 -32 0 -34 2 -34 35 0 24 -5 35 -15 35 -12 0 -15 -17 -15 -90z m145 -35 c0 -17 -8 -20 -57 -23 -57 -3 -58 -2 -58 23 0 25 1 26 58 23 49 -3 57 -6 57 -23z"/>
 <path d="M1077 5093 c-4 -3 -7 -17 -7 -31 0 -15 -18 -44 -47 -76 -68 -76 -86 -123 -81 -212 4 -62 12 -87 52 -167 l48 -94 -31 -48 c-35 -55 -38 -82 -15 -148 l16 -47 209 0 c135 0 209 -4 209 -10 0 -7 -76 -9 -222 -8 l-223 3 -20 57 c-16 48 -24 58 -48 64 -16 3 -34 1 -40 -5 -16 -16 -49 -14 -75 5 -15 10 -32 13 -52 9 -24 -5 -32 -15 -45 -55 -20 -59 -13 -88 23 -96 15 -4 36 -13 47 -20 11 -8 28 -14 38 -14 10 0 31 -9 46 -19 15 -11 50 -23 77 -29 51 -9 148 -63 158 -88 3 -7 1 -27 -4 -43 -10 -36 -12 -34 65 -50 102 -21 132 -33 165 -62 34 -32 54 -34 130 -18 39 8 54 8 65 -1 10 -8 32 -11 60 -8 l44 5 46 -73 c35 -56 52 -74 68 -74 29 1 57 23 57 45 0 9 -47 98 -105 196 -98 166 -145 257 -145 280 0 5 20 9 43 9 42 0 44 1 55 39 21 68 15 123 -17 166 l-28 38 51 99 c48 94 51 103 51 176 0 87 -20 135 -75 187 -37 35 -60 75 -60 105 0 20 -5 20 -238 20 -131 0 -242 -3 -245 -7z m177 -109 c13 -33 5 -116 -18 -191 -13 -43 -26 -91 -29 -107 -5 -31 6 -128 18 -158 6 -15 1 -18 -32 -18 l-39 0 -57 118 c-84 172 -78 228 35 322 62 52 110 66 122 34z m-51 -536 c-17 -18 -34 -43 -38 -55 -5 -19 -14 -23 -46 -23 -49 0 -50 14 -3 68 31 37 41 42 77 42 l41 0 -31 -32z"/>
 <path d="M2880 4950 c-36 -4 -81 -14 -100 -22 -24 -10 -64 -14 -125 -13 -49 1 -250 3 -446 3 -306 1 -359 4 -372 17 -9 8 -33 15 -56 15 l-40 0 7 -32 c12 -55 6 -171 -11 -210 -9 -21 -13 -39 -9 -42 4 -2 347 -7 763 -11 581 -6 758 -5 764 4 11 18 -3 76 -24 100 -10 11 -31 27 -47 34 -64 29 -94 52 -94 74 0 12 -17 37 -37 57 -41 39 -48 40 -173 26z"/>
 <path d="M5373 4852 c-50 -14 -52 -16 -78 -81 -15 -36 -40 -82 -55 -101 -33 -44 -53 -80 -43 -80 4 1 24 14 43 30 43 37 57 38 67 3 5 -16 8 -183 8 -373 0 -317 -1 -347 -18 -372 -21 -30 -58 -46 -131 -54 l-51 -6 -53 60 c-32 38 -65 65 -87 72 -45 15 -44 25 3 40 20 7 41 16 45 19 15 14 -34 61 -76 72 -23 6 -55 18 -70 25 l-28 15 33 27 c18 15 36 26 40 24 5 -1 36 -3 68 -4 51 -1 64 2 86 23 45 42 47 55 14 79 -26 19 -34 20 -69 9 -21 -6 -55 -9 -74 -5 -41 8 -43 13 -52 176 -10 197 -10 196 -59 219 -23 12 -47 21 -53 21 -7 0 -12 -58 -15 -174 -1 -96 -6 -177 -9 -180 -3 -4 -23 1 -43 9 -31 13 -43 14 -72 3 -19 -7 -44 -22 -55 -35 -18 -18 -19 -24 -8 -35 8 -7 24 -14 36 -14 24 -1 132 -42 147 -55 15 -13 -14 -58 -48 -75 -17 -8 -42 -23 -56 -34 -21 -17 -23 -21 -10 -30 8 -5 35 -12 60 -16 25 -3 70 -17 100 -31 50 -22 58 -30 87 -90 18 -37 31 -68 29 -70 -5 -5 -130 38 -153 53 -18 11 -23 24 -23 58 0 43 -1 44 -42 55 -40 10 -45 9 -64 -13 -12 -14 -23 -29 -25 -34 -2 -4 -22 -17 -43 -28 -50 -24 -56 -40 -17 -49 17 -4 33 -10 36 -15 3 -5 -4 -32 -15 -60 -11 -28 -20 -55 -20 -60 0 -21 48 -9 105 25 86 52 89 49 93 -73 1 -56 1 -102 -1 -102 -3 0 -35 12 -73 26 -52 19 -79 24 -110 19 -41 -6 -181 -82 -205 -112 -12 -14 -7 -15 56 -9 66 5 78 3 200 -42 124 -45 130 -48 129 -74 0 -16 -1 -68 -2 -117 l-2 -90 -50 -57 c-52 -59 -67 -92 -56 -121 6 -15 8 -15 19 0 6 9 53 29 102 45 168 54 211 87 201 149 -4 21 -9 67 -12 102 -6 63 -6 63 17 56 13 -4 26 -10 29 -14 3 -3 26 -13 51 -22 45 -15 48 -15 125 13 43 16 84 34 91 40 17 14 17 99 0 123 -13 17 -18 17 -92 2 -72 -14 -86 -14 -155 0 -41 8 -78 18 -83 22 -4 4 -14 47 -23 96 -8 49 -20 97 -26 108 -9 17 -7 18 24 12 59 -13 75 -23 87 -54 12 -27 11 -34 -8 -60 l-22 -30 36 -7 c65 -12 160 47 149 92 -6 23 -5 24 54 24 50 0 73 7 138 39 85 43 137 90 175 159 22 40 22 46 10 100 -7 34 -16 194 -22 397 -5 187 -13 355 -17 374 -11 49 -49 63 -119 43z"/>
 <path d="M9465 4794 c-27 -13 -58 -24 -67 -24 -10 0 -18 -7 -18 -15 0 -19 -19 -19 -44 0 -24 19 -70 19 -88 2 -45 -45 -533 -56 -776 -18 -139 22 -143 22 -174 4 -51 -29 -45 -39 34 -57 93 -22 352 -66 383 -66 34 0 37 -11 19 -64 -11 -32 -15 -72 -13 -131 2 -47 3 -85 1 -85 -1 0 -33 15 -70 34 -72 36 -233 96 -259 96 -26 0 9 -32 158 -146 76 -57 160 -125 189 -151 l52 -48 -59 3 c-70 4 -70 4 -122 -123 -18 -44 -37 -84 -42 -89 -5 -6 -9 -16 -9 -22 0 -16 49 -1 100 31 48 30 59 46 68 93 l7 39 80 -24 c44 -14 85 -26 91 -28 12 -4 59 -133 52 -141 -3 -2 -31 5 -63 16 -59 20 -140 26 -162 12 -15 -10 71 -54 167 -87 96 -32 164 -11 202 65 17 32 17 35 -1 64 -11 17 -37 45 -59 61 -37 27 -40 33 -35 66 6 43 -6 49 -87 41 l-53 -5 7 29 c4 16 9 37 12 47 4 12 -9 33 -40 64 -35 35 -44 49 -35 59 6 7 14 34 17 60 l7 48 38 -33 c20 -18 37 -31 37 -28 0 17 -66 189 -86 226 l-24 43 53 -6 c28 -3 120 -6 202 -8 150 -2 150 -2 224 31 40 18 77 29 81 24 18 -19 32 -364 34 -824 3 -573 8 -542 -88 -586 -59 -27 -65 -28 -231 -28 -158 1 -176 3 -252 28 -46 15 -83 32 -83 36 0 5 34 21 76 36 43 16 78 35 81 44 11 39 22 45 95 58 115 19 130 27 126 65 -3 32 -5 33 -88 54 -121 32 -139 40 -146 69 -3 14 -4 28 -1 31 3 3 53 -3 111 -12 105 -18 105 -18 173 4 97 31 98 33 78 71 -21 42 -37 47 -92 26 -54 -21 -184 -23 -265 -5 -29 6 -104 37 -166 67 -108 54 -114 56 -172 50 -68 -8 -134 -31 -110 -40 8 -3 50 -15 93 -27 43 -12 108 -34 145 -50 66 -28 67 -29 70 -71 l3 -42 -50 6 c-49 6 -71 1 -156 -33 -29 -12 -28 -13 75 -47 58 -19 111 -40 118 -45 7 -6 12 -35 12 -73 0 -55 -3 -66 -23 -82 -13 -10 -22 -24 -19 -32 4 -11 0 -12 -14 -6 -64 26 -159 56 -196 61 -50 7 -132 -12 -122 -28 11 -18 203 -105 301 -137 157 -51 301 -75 453 -75 150 0 212 13 313 67 65 34 99 76 149 183 33 70 33 72 -1 198 -18 68 -21 109 -22 310 -1 127 3 294 10 372 18 232 -9 528 -52 561 -8 7 -28 3 -62 -13z"/>
 <path d="M7663 4706 c-182 -59 -333 -185 -408 -341 -39 -80 -69 -189 -84 -302 -12 -87 -31 -407 -31 -519 0 -88 -13 -120 -50 -128 -36 -7 -244 52 -350 99 -148 64 -187 65 -230 6 -16 -23 -18 -32 -8 -35 66 -19 180 -60 262 -95 54 -23 151 -56 215 -73 104 -27 121 -29 160 -19 54 14 119 61 190 136 52 55 53 57 48 103 -4 26 -13 79 -22 117 -8 39 -18 135 -21 215 -8 179 8 275 67 398 37 76 45 86 107 127 71 47 125 65 137 45 4 -6 9 -28 11 -48 2 -20 10 -55 18 -76 l14 -40 7 35 c4 18 19 45 32 59 48 49 126 156 145 197 16 37 17 48 7 85 -7 24 -19 51 -27 61 -21 24 -100 22 -189 -7z"/>
 <path d="M4405 4634 c-24 -37 -25 -59 -28 -354 -2 -261 -3 -266 -30 -341 -15 -41 -27 -79 -27 -82 0 -10 65 18 100 43 16 11 47 48 69 81 l41 61 0 303 0 303 -31 6 c-56 11 -76 7 -94 -20z"/>
 <path d="M8154 4595 c-48 -170 -47 -154 -50 -707 l-3 -526 34 23 c67 45 117 126 131 212 3 22 1 105 -6 184 -18 218 -14 506 10 682 12 81 18 152 15 157 -9 15 -71 39 -94 37 -15 -1 -24 -15 -37 -62z"/>
 <path d="M2035 4628 c-2 -7 -8 -29 -13 -48 -5 -23 -15 -36 -28 -39 -21 -4 -54 -30 -54 -43 0 -5 -7 -25 -17 -46 -9 -20 -17 -41 -17 -45 -1 -5 -8 -14 -16 -20 -22 -17 -52 -67 -62 -102 -6 -25 -7 -22 -4 15 2 25 7 53 11 63 6 15 0 17 -58 17 l-66 0 -7 -37 c-4 -21 -13 -50 -21 -65 -12 -24 -19 -28 -58 -28 -33 0 -45 -4 -45 -15 0 -28 47 -121 112 -220 l66 -100 122 8 c102 7 126 6 155 -7 40 -19 111 -21 118 -3 5 10 8 -5 7 -28 0 -3 13 -17 29 -31 44 -36 49 -81 17 -129 -14 -21 -26 -44 -26 -51 0 -21 -18 -17 -25 6 -6 18 -15 20 -112 20 -67 0 -116 -5 -136 -14 -74 -32 -117 -38 -151 -22 -50 23 -262 18 -301 -8 -22 -15 -45 -19 -94 -18 -35 1 -70 -3 -77 -9 -29 -24 -6 -159 26 -159 5 0 18 -10 30 -22 13 -14 37 -24 68 -28 l47 -5 3 -43 c3 -47 39 -92 72 -92 11 0 20 -4 20 -9 0 -15 60 -41 94 -41 49 0 60 -13 58 -64 -1 -26 4 -59 11 -74 14 -28 12 -62 -3 -62 -12 0 -33 -68 -26 -85 6 -18 39 -19 67 -4 30 16 127 1 125 -19 0 -9 11 -22 25 -31 24 -13 28 -13 43 1 9 9 16 19 16 23 0 15 30 35 53 35 42 0 57 -10 57 -40 0 -27 33 -60 61 -60 6 0 24 -9 39 -20 28 -20 90 -25 90 -7 0 5 14 -3 32 -18 29 -24 38 -27 83 -21 27 3 72 6 98 6 39 0 53 5 75 27 22 23 37 28 77 29 71 2 75 2 75 17 0 6 18 18 41 25 60 19 89 41 89 68 0 14 -7 27 -15 30 -8 4 -15 13 -15 21 0 11 6 13 23 8 12 -4 37 -9 55 -12 28 -5 32 -3 32 18 0 44 11 65 41 78 27 12 29 17 28 59 -1 26 5 66 12 89 11 35 11 46 -1 67 -22 42 -1 57 84 55 80 -1 146 9 146 22 0 5 7 9 16 9 14 0 15 9 9 68 -4 37 -9 69 -11 71 -10 10 -100 20 -191 21 -74 0 -104 4 -110 13 -13 22 -70 37 -100 27 -16 -5 -64 -13 -109 -20 -90 -12 -116 -6 -153 34 -32 34 -94 37 -111 5 -7 -12 -18 -18 -26 -15 -9 3 -12 1 -9 -4 8 -12 10 -12 -102 -14 -87 -2 -92 -1 -102 21 -15 32 -14 43 4 43 8 0 15 -8 15 -18 0 -15 11 -17 83 -19 92 -2 103 4 129 60 10 20 29 43 43 49 19 9 24 16 19 32 -9 30 -25 37 -59 30 -88 -17 -99 -17 -123 9 -17 18 -24 38 -25 76 -1 30 -7 51 -13 51 -15 0 -24 47 -17 83 4 19 11 27 26 27 11 0 26 8 33 18 16 20 18 68 4 77 -6 4 -8 10 -5 14 2 5 -19 26 -48 47 -34 24 -59 53 -70 77 -16 37 -15 38 11 55 14 9 41 33 59 53 22 24 46 39 70 44 21 4 51 14 67 22 17 9 63 19 103 24 82 9 123 31 142 76 6 16 25 36 41 45 17 9 30 25 30 35 0 17 -21 18 -350 21 -274 2 -352 -1 -355 -10z m-157 -486 c-2 -31 0 -35 36 -47 21 -8 53 -27 70 -42 17 -16 61 -42 99 -57 42 -18 67 -34 67 -44 0 -13 -2 -13 -17 1 -10 8 -42 23 -71 32 -29 10 -74 35 -100 56 -27 22 -57 39 -72 39 -69 1 -97 38 -45 62 29 13 30 20 9 56 l-16 27 22 -24 c15 -17 20 -35 18 -59z"/>
 <path d="M1960 4056 c0 -2 8 -10 18 -17 15 -13 16 -12 3 4 -13 16 -21 21 -21 13z"/>
 <path d="M6035 4488 c59 -124 101 -243 175 -503 52 -183 95 -412 86 -451 -4 -13 -20 -39 -36 -58 -35 -40 -27 -51 28 -41 50 9 116 49 142 85 45 63 45 86 -1 266 -37 147 -44 204 -20 165 12 -19 87 4 117 36 12 13 28 49 35 78 16 73 20 78 62 70 39 -8 47 -22 47 -92 0 -39 -2 -43 -25 -43 -30 0 -95 -25 -95 -37 1 -13 42 -39 82 -52 51 -17 55 -37 12 -63 l-36 -21 27 -15 c36 -19 118 -11 145 13 20 18 23 18 112 -3 85 -19 95 -20 125 -5 45 21 103 87 103 118 0 58 -93 195 -132 195 -10 0 -29 5 -41 12 -12 6 -51 16 -86 22 -69 12 -72 15 -95 109 -7 28 -6 28 31 22 21 -3 49 -8 61 -11 14 -3 21 -1 18 5 -3 5 0 11 6 14 10 3 10 10 -2 32 -33 64 -72 89 -201 133 -68 23 -143 44 -165 48 -40 6 -43 4 -103 -55 -33 -33 -61 -63 -61 -66 0 -3 15 -5 33 -5 42 0 176 -34 216 -54 31 -16 35 -25 47 -88 6 -35 4 -39 -22 -49 -16 -6 -50 -11 -76 -10 -58 0 -77 -20 -108 -114 -24 -73 -55 -120 -63 -95 -3 8 -33 101 -68 205 -34 105 -71 208 -82 230 -33 68 -87 134 -120 149 -30 14 -103 36 -119 36 -4 0 18 -51 47 -112z m842 -422 c8 -8 33 -111 33 -139 0 -22 -4 -27 -17 -23 -10 3 -30 8 -46 12 -29 7 -32 14 -42 108 l-5 59 36 -6 c20 -3 38 -8 41 -11z"/>
 <path d="M9138 4503 c-24 -21 -61 -54 -83 -73 -22 -19 -62 -56 -89 -82 l-49 -48 35 -27 c73 -59 138 -138 138 -170 0 -32 30 -30 63 5 27 28 34 56 19 78 -9 14 -114 67 -165 84 -47 15 -41 21 43 51 88 30 196 102 204 134 8 30 -6 60 -34 75 -29 15 -37 13 -82 -27z"/>
 <path d="M7014 4450 c-58 -77 -144 -204 -144 -213 0 -26 153 52 218 110 40 37 54 57 59 85 6 40 -4 50 -63 62 -29 6 -34 3 -70 -44z"/>
 <path d="M420 4265 c0 -8 2 -15 4 -15 2 0 6 7 10 15 3 8 1 15 -4 15 -6 0 -10 -7 -10 -15z"/>
 <path d="M406 4221 c-4 -7 -5 -15 -2 -18 9 -9 19 4 14 18 -4 11 -6 11 -12 0z"/>
 <path d="M3165 4201 c-27 -4 -61 -13 -76 -18 -14 -6 -54 -9 -90 -6 -52 4 -74 1 -116 -16 l-50 -22 -39 20 c-41 22 -69 27 -78 12 -3 -5 -39 -12 -78 -16 -88 -8 -151 -21 -193 -39 -16 -8 -38 -16 -48 -20 -9 -3 -27 -21 -38 -41 -15 -25 -28 -35 -45 -35 -22 0 -24 -4 -24 -43 0 -31 5 -45 20 -55 13 -8 20 -23 20 -45 0 -73 6 -79 74 -76 98 3 104 2 128 -36 13 -20 31 -35 42 -35 11 0 27 -6 35 -13 27 -23 111 -49 139 -44 15 3 47 11 72 18 25 6 98 11 163 11 64 0 117 3 117 8 0 5 -5 31 -11 58 -11 45 -10 51 10 71 11 11 21 29 21 39 0 10 10 23 23 29 25 12 155 65 205 84 48 17 57 41 42 105 -18 73 -49 101 -120 107 -30 3 -77 2 -105 -2z"/>
 <path d="M6615 3780 c-11 -5 -32 -9 -47 -9 -16 -1 -28 -5 -28 -10 0 -4 27 -27 60 -50 33 -23 58 -47 55 -52 -4 -5 2 -9 12 -9 10 0 49 -27 86 -60 38 -33 74 -60 80 -60 23 0 87 50 102 81 9 16 13 38 10 48 -6 19 -119 76 -223 110 -68 23 -77 24 -107 11z"/>
 </g>
<g id="layer103" fill="#655d4f" stroke="none">
 <path d="M1844 5730 c-78 -16 -217 -54 -310 -85 -146 -48 -182 -64 -261 -118 -51 -34 -93 -66 -93 -70 0 -4 10 -2 23 4 30 16 13 -1 -57 -55 -33 -26 -70 -46 -84 -46 -36 0 -285 -255 -409 -420 -113 -150 -144 -207 -168 -301 -9 -35 -23 -85 -31 -112 -24 -73 -11 -78 15 -6 26 69 100 223 106 218 2 -2 -14 -40 -35 -84 -33 -69 -83 -228 -105 -332 -13 -65 4 -31 34 66 40 130 88 239 164 381 51 95 78 130 152 205 50 50 119 115 155 144 49 40 37 26 -46 -55 -80 -78 -132 -140 -184 -219 -78 -118 -186 -331 -220 -433 -47 -144 -73 -468 -51 -648 14 -114 59 -314 70 -314 4 0 -2 51 -15 113 -38 188 -46 278 -34 412 17 197 41 335 71 418 41 113 154 325 252 475 82 124 145 192 287 308 l35 29 -24 -33 c-38 -54 -16 -49 56 13 38 32 84 68 103 80 294 184 421 248 577 289 178 47 445 51 620 11 247 -56 541 -197 730 -349 233 -188 435 -481 529 -765 57 -173 76 -284 81 -488 6 -208 -2 -294 -43 -452 -84 -321 -235 -560 -509 -803 -337 -300 -722 -439 -1103 -399 -292 31 -644 163 -822 307 -36 29 -126 115 -201 192 -87 88 -153 147 -181 161 -43 21 -100 27 -133 15 -42 -17 -59 -121 -30 -191 18 -43 16 -47 -19 -34 -14 6 -26 7 -26 2 0 -14 131 -185 205 -267 124 -138 378 -309 573 -385 265 -103 424 -133 717 -132 187 0 224 3 339 27 377 77 672 241 952 527 178 184 325 394 435 624 88 186 110 273 164 658 5 34 -8 53 -17 25 -2 -6 -9 56 -16 138 -20 268 -92 537 -206 769 -132 268 -288 442 -619 692 -214 160 -399 243 -668 297 -114 24 -148 26 -355 25 -212 0 -239 -2 -370 -29z m-264 -115 c0 -9 -57 -33 -165 -70 -60 -20 -127 -46 -147 -56 -64 -32 -42 -12 29 28 86 47 283 116 283 98z m-115 -161 c-11 -9 -57 -38 -103 -65 -46 -27 -96 -57 -110 -66 l-27 -16 25 26 c14 14 70 51 125 81 102 57 125 67 90 40z"/>
 <path d="M8190 5530 l0 -130 89 0 c74 0 92 3 115 21 28 22 35 66 15 86 -8 8 -7 17 5 34 24 35 20 74 -10 98 -23 18 -41 21 -120 21 l-94 0 0 -130z m195 87 c13 -10 16 -21 12 -39 -8 -30 -30 -38 -114 -38 l-63 0 0 45 0 45 73 0 c46 0 80 -5 92 -13z m-14 -117 c21 -12 25 -40 7 -58 -7 -7 -42 -12 -85 -12 l-73 0 0 40 0 40 66 0 c36 0 74 -5 85 -10z"/>
 <path d="M8544 5650 c-28 -11 -54 -48 -54 -78 0 -77 102 -118 177 -72 57 34 57 106 0 140 -33 21 -87 25 -123 10z m119 -49 c48 -47 -22 -106 -98 -81 -36 12 -51 37 -40 69 13 43 100 50 138 12z"/>
 <path d="M8800 5570 c0 -112 9 -115 82 -26 l53 65 3 -65 c2 -48 7 -64 17 -64 12 0 15 18 15 90 0 112 -9 115 -82 26 l-53 -65 -3 65 c-2 48 -7 64 -17 64 -12 0 -15 -18 -15 -90z"/>
 <path d="M9095 5653 c-11 -3 -26 -10 -33 -16 -23 -18 2 -26 45 -14 48 13 98 1 98 -23 0 -11 -16 -16 -60 -20 -71 -6 -85 -13 -85 -45 0 -47 68 -69 139 -44 30 11 39 38 10 30 -36 -9 -95 -11 -108 -3 -24 17 -1 32 47 32 56 0 92 22 92 55 0 44 -68 67 -145 48z"/>
 <path d="M9280 5656 c0 -2 21 -43 46 -90 30 -56 51 -86 62 -86 11 0 34 32 64 90 42 80 45 90 28 90 -11 0 -24 -9 -30 -20 -9 -16 -21 -20 -65 -20 -44 0 -56 4 -65 20 -9 17 -40 29 -40 16z m140 -71 c0 -10 -31 -67 -34 -63 -2 1 -11 18 -20 36 l-17 32 36 0 c19 0 35 -2 35 -5z"/>
 <path d="M9560 5570 c0 -73 3 -90 15 -90 12 0 15 17 15 90 0 73 -3 90 -15 90 -12 0 -15 -17 -15 -90z"/>
 <path d="M6260 5150 c0 -144 2 -170 15 -170 13 0 15 26 15 170 0 144 -2 170 -15 170 -13 0 -15 -26 -15 -170z"/>
 <path d="M3860 5110 c0 -109 2 -130 15 -130 8 0 52 47 98 105 l82 105 3 -105 c2 -84 6 -105 17 -105 12 0 15 22 15 130 0 108 -3 130 -15 130 -8 0 -53 -48 -100 -106 l-85 -106 0 106 c0 88 -3 106 -15 106 -13 0 -15 -21 -15 -130z"/>
 <path d="M4160 5236 c0 -2 21 -43 46 -90 30 -56 51 -86 62 -86 11 0 34 32 64 90 42 80 45 90 28 90 -11 0 -24 -9 -30 -20 -9 -16 -21 -20 -65 -20 -44 0 -56 4 -65 20 -9 17 -40 29 -40 16z m140 -71 c0 -10 -31 -67 -34 -63 -2 1 -11 18 -20 36 l-17 32 36 0 c19 0 35 -2 35 -5z"/>
 <path d="M4440 5150 c0 -112 9 -115 82 -26 l53 65 3 -65 c2 -48 7 -64 17 -64 12 0 15 18 15 90 0 112 -9 115 -82 26 l-53 -65 -3 65 c-2 48 -7 64 -17 64 -12 0 -15 -18 -15 -90z"/>
 <path d="M4850 5110 l0 -130 105 0 c87 0 105 3 105 15 0 12 -17 15 -90 15 l-90 0 0 40 0 40 55 0 c42 0 55 3 55 15 0 12 -13 15 -55 15 l-55 0 0 60 c0 47 -3 60 -15 60 -13 0 -15 -21 -15 -130z"/>
 <path d="M5166 5219 c-24 -19 -26 -27 -26 -90 0 -55 3 -69 15 -69 12 0 15 14 15 65 0 60 2 66 25 77 18 8 35 9 53 2 25 -9 27 -14 30 -77 2 -51 6 -67 17 -67 12 0 15 15 15 69 0 63 -2 71 -26 90 -15 12 -41 21 -59 21 -18 0 -44 -9 -59 -21z"/>
 <path d="M5550 5110 l0 -130 105 0 c87 0 105 3 105 15 0 12 -17 15 -90 15 l-90 0 0 40 0 40 45 0 c33 0 45 4 45 15 0 11 -12 15 -45 15 l-45 0 0 45 0 45 95 0 c78 0 95 3 95 15 0 12 -19 15 -110 15 l-110 0 0 -130z"/>
 <path d="M5850 5150 c0 -112 9 -115 82 -26 l53 65 3 -65 c2 -48 7 -64 17 -64 12 0 15 18 15 90 0 112 -9 115 -82 26 l-53 -65 -3 65 c-2 48 -7 64 -17 64 -12 0 -15 -18 -15 -90z"/>
 <path d="M6529 5114 c-32 -69 -59 -128 -59 -130 0 -2 7 -4 16 -4 10 0 33 38 66 108 l51 107 50 -107 c36 -78 55 -108 68 -108 15 0 8 22 -43 130 -35 75 -67 130 -75 130 -8 0 -40 -54 -74 -126z"/>
 <path d="M6800 5150 c0 -73 3 -90 15 -90 12 0 15 17 15 90 0 73 -3 90 -15 90 -12 0 -15 -17 -15 -90z"/>
 <path d="M6940 5150 l0 -90 80 0 c64 0 80 3 80 15 0 12 -14 15 -65 15 -58 0 -65 2 -65 20 0 16 7 20 35 20 24 0 35 5 35 15 0 10 -11 15 -35 15 -31 0 -35 3 -35 25 0 24 2 25 65 25 51 0 65 3 65 15 0 12 -16 15 -80 15 l-80 0 0 -90z"/>
 <path d="M7180 5150 c0 -112 9 -115 82 -26 l53 65 3 -65 c2 -48 7 -64 17 -64 12 0 15 18 15 90 0 112 -9 115 -82 26 l-53 -65 -3 65 c-2 48 -7 64 -17 64 -12 0 -15 -18 -15 -90z"/>
 <path d="M7500 5165 l0 -75 -35 0 c-24 0 -35 -5 -35 -15 0 -12 16 -15 85 -15 69 0 85 3 85 15 0 10 -11 15 -35 15 l-35 0 0 75 c0 60 -3 75 -15 75 -12 0 -15 -15 -15 -75z"/>
 <path d="M7704 5230 c-28 -11 -54 -48 -54 -78 0 -77 102 -118 177 -72 57 34 57 106 0 140 -33 21 -87 25 -123 10z m119 -49 c48 -47 -22 -106 -98 -81 -36 12 -51 37 -40 69 13 43 100 50 138 12z"/>
 <path d="M8090 5150 l0 -90 66 0 c59 0 68 3 95 29 20 20 29 39 29 61 0 22 -9 41 -29 61 -27 26 -36 29 -95 29 l-66 0 0 -90z m140 40 c46 -46 10 -100 -67 -100 l-43 0 0 60 0 60 45 0 c32 0 51 -6 65 -20z"/>
 <path d="M8360 5150 l0 -90 80 0 c64 0 80 3 80 15 0 12 -14 15 -65 15 -58 0 -65 2 -65 20 0 16 7 20 35 20 24 0 35 5 35 15 0 10 -11 15 -35 15 -31 0 -35 3 -35 25 0 24 2 25 65 25 51 0 65 3 65 15 0 12 -16 15 -80 15 l-80 0 0 -90z"/>
 <path d="M8600 5150 c0 -73 3 -90 15 -90 12 0 15 15 15 75 l0 75 55 0 c42 0 55 3 55 15 0 12 -14 15 -70 15 l-70 0 0 -90z"/>
 <path d="M8945 5233 c-11 -3 -26 -10 -33 -16 -23 -18 2 -26 45 -14 48 13 98 1 98 -23 0 -11 -16 -16 -60 -20 -71 -6 -85 -13 -85 -45 0 -47 68 -69 139 -44 30 11 39 38 10 30 -36 -9 -95 -11 -108 -3 -24 17 -1 32 47 32 56 0 92 22 92 55 0 44 -68 67 -145 48z"/>
 <path d="M9196 5219 c-24 -19 -26 -27 -26 -90 0 -55 3 -69 15 -69 12 0 15 14 15 65 0 60 2 66 25 77 18 8 35 9 53 2 25 -9 27 -14 30 -77 2 -51 6 -67 17 -67 12 0 15 15 15 69 0 63 -2 71 -26 90 -15 12 -41 21 -59 21 -18 0 -44 -9 -59 -21z"/>
 <path d="M9450 5150 l0 -90 73 0 c59 0 77 4 90 18 23 25 21 51 -5 79 -19 21 -20 25 -6 40 27 32 30 43 11 43 -10 0 -29 -16 -42 -35 -19 -28 -30 -35 -57 -35 -32 0 -34 2 -34 35 0 24 -5 35 -15 35 -12 0 -15 -17 -15 -90z m145 -35 c0 -17 -8 -20 -57 -23 -57 -3 -58 -2 -58 23 0 25 1 26 58 23 49 -3 57 -6 57 -23z"/>
 <path d="M1077 5093 c-4 -3 -7 -17 -7 -31 0 -15 -18 -44 -47 -76 -68 -76 -86 -123 -81 -212 4 -62 12 -87 52 -167 l48 -94 -31 -48 c-35 -55 -38 -82 -15 -148 l16 -47 208 0 208 0 21 -61 c20 -59 95 -197 208 -381 42 -68 59 -88 76 -88 29 1 57 23 57 45 0 9 -47 98 -105 196 -98 166 -145 257 -145 280 0 5 20 9 43 9 42 0 44 1 55 39 21 68 15 123 -17 166 l-28 38 51 99 c48 94 51 103 51 176 0 87 -20 135 -75 187 -37 35 -60 75 -60 105 0 20 -5 20 -238 20 -131 0 -242 -3 -245 -7z m177 -109 c13 -33 5 -116 -18 -191 -13 -43 -26 -91 -29 -107 -5 -31 6 -128 18 -158 6 -15 1 -18 -32 -18 l-39 0 -57 118 c-84 172 -78 228 35 322 62 52 110 66 122 34z m-51 -536 c-17 -18 -34 -43 -38 -55 -5 -19 -14 -23 -46 -23 -49 0 -50 14 -3 68 31 37 41 42 77 42 l41 0 -31 -32z"/>
 <path d="M5373 4852 c-50 -14 -52 -16 -78 -81 -15 -36 -40 -82 -55 -101 -33 -44 -53 -80 -43 -80 4 1 24 14 43 30 43 37 57 38 67 3 5 -16 8 -183 8 -373 0 -317 -1 -347 -18 -372 -21 -30 -58 -46 -131 -54 l-51 -6 -53 60 c-32 38 -65 65 -87 72 -45 15 -44 25 3 40 20 7 41 16 45 19 15 14 -34 61 -76 72 -23 6 -55 18 -70 25 l-28 15 33 27 c18 15 36 26 40 24 5 -1 36 -3 68 -4 51 -1 64 2 86 23 45 42 47 55 14 79 -26 19 -34 20 -69 9 -21 -6 -55 -9 -74 -5 -41 8 -43 13 -52 176 -10 197 -10 196 -59 219 -23 12 -47 21 -53 21 -7 0 -12 -58 -15 -174 -1 -96 -6 -177 -9 -180 -3 -4 -23 1 -43 9 -31 13 -43 14 -72 3 -19 -7 -44 -22 -55 -35 -18 -18 -19 -24 -8 -35 8 -7 24 -14 36 -14 24 -1 132 -42 147 -55 15 -13 -14 -58 -48 -75 -17 -8 -42 -23 -56 -34 -21 -17 -23 -21 -10 -30 8 -5 35 -12 60 -16 25 -3 70 -17 100 -31 50 -22 58 -30 87 -90 18 -37 31 -68 29 -70 -5 -5 -130 38 -153 53 -18 11 -23 24 -23 58 0 43 -1 44 -42 55 -40 10 -45 9 -64 -13 -12 -14 -23 -29 -25 -34 -2 -4 -22 -17 -43 -28 -50 -24 -56 -40 -17 -49 17 -4 33 -10 36 -15 3 -5 -4 -32 -15 -60 -11 -28 -20 -55 -20 -60 0 -21 48 -9 105 25 86 52 89 49 93 -73 1 -56 1 -102 -1 -102 -3 0 -35 12 -73 26 -52 19 -79 24 -110 19 -41 -6 -181 -82 -205 -112 -12 -14 -7 -15 56 -9 66 5 78 3 200 -42 124 -45 130 -48 129 -74 0 -16 -1 -68 -2 -117 l-2 -90 -50 -57 c-52 -59 -67 -92 -56 -121 6 -15 8 -15 19 0 6 9 53 29 102 45 168 54 211 87 201 149 -4 21 -9 67 -12 102 -6 63 -6 63 17 56 13 -4 26 -10 29 -14 3 -3 26 -13 51 -22 45 -15 48 -15 125 13 43 16 84 34 91 40 17 14 17 99 0 123 -13 17 -18 17 -92 2 -72 -14 -86 -14 -155 0 -41 8 -78 18 -83 22 -4 4 -14 47 -23 96 -8 49 -20 97 -26 108 -9 17 -7 18 24 12 59 -13 75 -23 87 -54 12 -27 11 -34 -8 -60 l-22 -30 36 -7 c65 -12 160 47 149 92 -6 23 -5 24 54 24 50 0 73 7 138 39 85 43 137 90 175 159 22 40 22 46 10 100 -7 34 -16 194 -22 397 -5 187 -13 355 -17 374 -11 49 -49 63 -119 43z"/>
 <path d="M9465 4794 c-27 -13 -58 -24 -67 -24 -10 0 -18 -7 -18 -15 0 -19 -19 -19 -44 0 -24 19 -70 19 -88 2 -45 -45 -533 -56 -776 -18 -139 22 -143 22 -174 4 -51 -29 -45 -39 34 -57 93 -22 352 -66 383 -66 34 0 37 -11 19 -64 -11 -32 -15 -72 -13 -131 2 -47 3 -85 1 -85 -1 0 -33 15 -70 34 -72 36 -233 96 -259 96 -26 0 9 -32 158 -146 76 -57 160 -125 189 -151 l52 -48 -59 3 c-70 4 -70 4 -122 -123 -18 -44 -37 -84 -42 -89 -5 -6 -9 -16 -9 -22 0 -16 49 -1 100 31 48 30 59 46 68 93 l7 39 80 -24 c44 -14 85 -26 91 -28 12 -4 59 -133 52 -141 -3 -2 -31 5 -63 16 -59 20 -140 26 -162 12 -15 -10 71 -54 167 -87 96 -32 164 -11 202 65 17 32 17 35 -1 64 -11 17 -37 45 -59 61 -37 27 -40 33 -35 66 6 43 -6 49 -87 41 l-53 -5 7 29 c4 16 9 37 12 47 4 12 -9 33 -40 64 -35 35 -44 49 -35 59 6 7 14 34 17 60 l7 48 38 -33 c20 -18 37 -31 37 -28 0 17 -66 189 -86 226 l-24 43 53 -6 c28 -3 120 -6 202 -8 150 -2 150 -2 224 31 40 18 77 29 81 24 18 -19 32 -364 34 -824 3 -573 8 -542 -88 -586 -59 -27 -65 -28 -231 -28 -158 1 -176 3 -252 28 -46 15 -83 32 -83 36 0 5 34 21 76 36 43 16 78 35 81 44 11 39 22 45 95 58 115 19 130 27 126 65 -3 32 -5 33 -88 54 -121 32 -139 40 -146 69 -3 14 -4 28 -1 31 3 3 53 -3 111 -12 105 -18 105 -18 173 4 97 31 98 33 78 71 -21 42 -37 47 -92 26 -54 -21 -184 -23 -265 -5 -29 6 -104 37 -166 67 -108 54 -114 56 -172 50 -68 -8 -134 -31 -110 -40 8 -3 50 -15 93 -27 43 -12 108 -34 145 -50 66 -28 67 -29 70 -71 l3 -42 -50 6 c-49 6 -71 1 -156 -33 -29 -12 -28 -13 75 -47 58 -19 111 -40 118 -45 7 -6 12 -35 12 -73 0 -55 -3 -66 -23 -82 -13 -10 -22 -24 -19 -32 4 -11 0 -12 -14 -6 -64 26 -159 56 -196 61 -50 7 -132 -12 -122 -28 11 -18 203 -105 301 -137 157 -51 301 -75 453 -75 150 0 212 13 313 67 65 34 99 76 149 183 33 70 33 72 -1 198 -18 68 -21 109 -22 310 -1 127 3 294 10 372 18 232 -9 528 -52 561 -8 7 -28 3 -62 -13z"/>
 <path d="M7663 4706 c-182 -59 -333 -185 -408 -341 -39 -80 -69 -189 -84 -302 -12 -87 -31 -407 -31 -519 0 -88 -13 -120 -50 -128 -36 -7 -244 52 -350 99 -148 64 -187 65 -230 6 -16 -23 -18 -32 -8 -35 66 -19 180 -60 262 -95 54 -23 151 -56 215 -73 104 -27 121 -29 160 -19 54 14 119 61 190 136 52 55 53 57 48 103 -4 26 -13 79 -22 117 -8 39 -18 135 -21 215 -8 179 8 275 67 398 37 76 45 86 107 127 71 47 125 65 137 45 4 -6 9 -28 11 -48 2 -20 10 -55 18 -76 l14 -40 7 35 c4 18 19 45 32 59 48 49 126 156 145 197 16 37 17 48 7 85 -7 24 -19 51 -27 61 -21 24 -100 22 -189 -7z"/>
 <path d="M4405 4634 c-24 -37 -25 -59 -28 -354 -2 -261 -3 -266 -30 -341 -15 -41 -27 -79 -27 -82 0 -10 65 18 100 43 16 11 47 48 69 81 l41 61 0 303 0 303 -31 6 c-56 11 -76 7 -94 -20z"/>
 <path d="M8154 4595 c-48 -170 -47 -154 -50 -707 l-3 -526 34 23 c67 45 117 126 131 212 3 22 1 105 -6 184 -18 218 -14 506 10 682 12 81 18 152 15 157 -9 15 -71 39 -94 37 -15 -1 -24 -15 -37 -62z"/>
 <path d="M6035 4488 c59 -124 101 -243 175 -503 52 -183 95 -412 86 -451 -4 -13 -20 -39 -36 -58 -35 -40 -27 -51 28 -41 50 9 116 49 142 85 45 63 45 86 -1 266 -37 147 -44 204 -20 165 12 -19 87 4 117 36 12 13 28 49 35 78 16 73 20 78 62 70 39 -8 47 -22 47 -92 0 -39 -2 -43 -25 -43 -30 0 -95 -25 -95 -37 1 -13 42 -39 82 -52 51 -17 55 -37 12 -63 l-36 -21 27 -15 c36 -19 118 -11 145 13 20 18 23 18 112 -3 85 -19 95 -20 125 -5 45 21 103 87 103 118 0 58 -93 195 -132 195 -10 0 -29 5 -41 12 -12 6 -51 16 -86 22 -69 12 -72 15 -95 109 -7 28 -6 28 31 22 21 -3 49 -8 61 -11 14 -3 21 -1 18 5 -3 5 0 11 6 14 10 3 10 10 -2 32 -33 64 -72 89 -201 133 -68 23 -143 44 -165 48 -40 6 -43 4 -103 -55 -33 -33 -61 -63 -61 -66 0 -3 15 -5 33 -5 42 0 176 -34 216 -54 31 -16 35 -25 47 -88 6 -35 4 -39 -22 -49 -16 -6 -50 -11 -76 -10 -58 0 -77 -20 -108 -114 -24 -73 -55 -120 -63 -95 -3 8 -33 101 -68 205 -34 105 -71 208 -82 230 -33 68 -87 134 -120 149 -30 14 -103 36 -119 36 -4 0 18 -51 47 -112z m842 -422 c8 -8 33 -111 33 -139 0 -22 -4 -27 -17 -23 -10 3 -30 8 -46 12 -29 7 -32 14 -42 108 l-5 59 36 -6 c20 -3 38 -8 41 -11z"/>
 <path d="M9138 4503 c-24 -21 -61 -54 -83 -73 -22 -19 -62 -56 -89 -82 l-49 -48 35 -27 c73 -59 138 -138 138 -170 0 -32 30 -30 63 5 27 28 34 56 19 78 -9 14 -114 67 -165 84 -47 15 -41 21 43 51 88 30 196 102 204 134 8 30 -6 60 -34 75 -29 15 -37 13 -82 -27z"/>
 <path d="M7014 4450 c-58 -77 -144 -204 -144 -213 0 -26 153 52 218 110 40 37 54 57 59 85 6 40 -4 50 -63 62 -29 6 -34 3 -70 -44z"/>
 <path d="M420 4265 c0 -8 2 -15 4 -15 2 0 6 7 10 15 3 8 1 15 -4 15 -6 0 -10 -7 -10 -15z"/>
 <path d="M6615 3780 c-11 -5 -32 -9 -47 -9 -16 -1 -28 -5 -28 -10 0 -4 27 -27 60 -50 33 -23 58 -47 55 -52 -4 -5 2 -9 12 -9 10 0 49 -27 86 -60 38 -33 74 -60 80 -60 23 0 87 50 102 81 9 16 13 38 10 48 -6 19 -119 76 -223 110 -68 23 -77 24 -107 11z"/>
 </g>
<g id="layer104" fill="#3d7783" stroke="none">
 <path d="M1844 5730 c-78 -16 -217 -54 -310 -85 -146 -48 -182 -64 -261 -118 -51 -34 -93 -66 -93 -70 0 -4 10 -2 23 4 30 16 13 -1 -57 -55 -33 -26 -70 -46 -84 -46 -36 0 -285 -255 -409 -420 -113 -150 -144 -207 -168 -301 -9 -35 -23 -85 -31 -112 -24 -73 -11 -78 15 -6 26 69 100 223 106 218 2 -2 -14 -40 -35 -84 -33 -69 -83 -228 -105 -332 -13 -65 4 -31 34 66 40 130 88 239 164 381 51 95 78 130 152 205 50 50 119 115 155 144 49 40 37 26 -46 -55 -80 -78 -132 -140 -184 -219 -78 -118 -186 -331 -220 -433 -47 -144 -73 -468 -51 -648 14 -114 59 -314 70 -314 4 0 -2 51 -15 113 -38 188 -46 278 -34 412 17 197 41 335 71 418 41 113 154 325 252 475 82 124 145 192 287 308 l35 29 -24 -33 c-38 -54 -16 -49 56 13 38 32 84 68 103 80 294 184 421 248 577 289 178 47 445 51 620 11 247 -56 541 -197 730 -349 233 -188 435 -481 529 -765 57 -173 76 -284 81 -488 6 -208 -2 -294 -43 -452 -84 -321 -235 -560 -509 -803 -337 -300 -722 -439 -1103 -399 -292 31 -644 163 -822 307 -36 29 -126 115 -201 192 -87 88 -153 147 -181 161 -43 21 -100 27 -133 15 -42 -17 -59 -121 -30 -191 18 -43 16 -47 -19 -34 -14 6 -26 7 -26 2 0 -14 131 -185 205 -267 124 -138 378 -309 573 -385 265 -103 424 -133 717 -132 187 0 224 3 339 27 377 77 672 241 952 527 178 184 325 394 435 624 88 186 110 273 164 658 5 34 -8 53 -17 25 -2 -6 -9 56 -16 138 -20 268 -92 537 -206 769 -132 268 -288 442 -619 692 -214 160 -399 243 -668 297 -114 24 -148 26 -355 25 -212 0 -239 -2 -370 -29z m-264 -115 c0 -9 -57 -33 -165 -70 -60 -20 -127 -46 -147 -56 -64 -32 -42 -12 29 28 86 47 283 116 283 98z m-115 -161 c-11 -9 -57 -38 -103 -65 -46 -27 -96 -57 -110 -66 l-27 -16 25 26 c14 14 70 51 125 81 102 57 125 67 90 40z"/>
 <path d="M8190 5529 l0 -131 94 4 c56 2 100 9 109 17 24 19 32 70 14 88 -14 14 -13 18 5 37 24 26 18 73 -13 99 -17 13 -40 17 -115 17 l-94 0 0 -131z m195 87 c16 -12 18 -19 10 -43 -10 -27 -12 -28 -93 -31 l-82 -3 0 46 0 45 73 0 c47 0 80 -5 92 -14z m-14 -116 c21 -12 25 -40 7 -58 -7 -7 -42 -12 -85 -12 l-73 0 0 40 0 40 66 0 c36 0 74 -5 85 -10z"/>
 <path d="M8564 5653 c-30 -6 -63 -43 -70 -79 -15 -74 115 -121 180 -65 75 65 -3 167 -110 144z m91 -39 c52 -34 15 -104 -55 -104 -56 0 -97 49 -72 86 23 35 88 44 127 18z"/>
 <path d="M8800 5570 c0 -106 10 -113 62 -49 18 22 43 53 55 67 l22 27 1 -67 c0 -54 3 -68 15 -68 12 0 15 17 15 90 0 105 -8 112 -61 48 -19 -23 -44 -53 -56 -67 l-22 -26 -1 68 c0 53 -3 67 -15 67 -12 0 -15 -17 -15 -90z"/>
 <path d="M9105 5653 c-16 -3 -36 -9 -42 -15 -22 -18 -4 -27 32 -17 20 6 52 9 73 7 29 -2 37 -7 37 -23 0 -17 -9 -21 -64 -27 -35 -4 -65 -9 -68 -11 -2 -3 -5 -17 -6 -33 -3 -39 51 -61 112 -44 22 6 41 17 41 24 0 10 -8 11 -38 3 -43 -12 -95 -2 -89 16 2 7 30 15 63 19 37 5 64 14 72 25 16 22 15 27 -5 51 -19 22 -69 33 -118 25z"/>
 <path d="M9280 5653 c0 -5 9 -21 21 -38 11 -16 31 -54 44 -82 31 -69 55 -71 83 -5 12 26 33 66 48 90 25 41 25 42 5 42 -11 0 -25 -9 -31 -20 -9 -16 -21 -20 -65 -20 -44 0 -56 4 -65 20 -10 19 -40 28 -40 13z m140 -67 c0 -13 -23 -66 -29 -66 -4 0 -15 16 -24 35 l-17 35 35 0 c19 0 35 -2 35 -4z"/>
 <path d="M9560 5570 c0 -73 3 -90 15 -90 12 0 15 17 15 90 0 73 -3 90 -15 90 -12 0 -15 -17 -15 -90z"/>
 <path d="M6260 5150 c0 -144 2 -170 15 -170 13 0 15 26 15 170 0 144 -2 170 -15 170 -13 0 -15 -26 -15 -170z"/>
 <path d="M3860 5110 c0 -101 3 -130 13 -130 8 0 42 37 78 81 35 45 74 93 86 108 l22 26 1 -107 c0 -89 3 -108 15 -108 13 0 15 21 15 130 0 102 -3 130 -13 130 -8 0 -52 -48 -98 -106 l-84 -106 -3 106 c-2 85 -6 106 -17 106 -12 0 -15 -22 -15 -130z"/>
 <path d="M4160 5233 c0 -5 9 -21 21 -38 11 -16 31 -54 44 -82 31 -69 55 -71 83 -5 12 26 33 66 48 90 25 41 25 42 5 42 -11 0 -25 -9 -31 -20 -9 -16 -21 -20 -65 -20 -44 0 -56 4 -65 20 -10 19 -40 28 -40 13z m140 -67 c0 -13 -23 -66 -29 -66 -4 0 -15 16 -24 35 l-17 35 35 0 c19 0 35 -2 35 -4z"/>
 <path d="M4440 5150 c0 -106 10 -113 62 -49 18 22 43 53 55 67 l22 27 1 -67 c0 -54 3 -68 15 -68 12 0 15 17 15 90 0 105 -8 112 -61 48 -19 -23 -44 -53 -56 -67 l-22 -26 -1 68 c0 53 -3 67 -15 67 -12 0 -15 -17 -15 -90z"/>
 <path d="M4850 5110 l0 -130 105 0 c87 0 105 3 105 15 0 12 -17 15 -90 15 l-90 0 0 40 0 40 55 0 c42 0 55 3 55 15 0 12 -13 15 -55 15 l-55 0 0 60 c0 47 -3 60 -15 60 -13 0 -15 -21 -15 -130z"/>
 <path d="M5169 5221 c-19 -16 -24 -30 -27 -90 -4 -60 -2 -71 12 -71 13 0 16 12 16 65 0 60 2 66 25 77 18 8 35 9 53 2 25 -9 27 -14 30 -77 2 -51 6 -67 17 -67 11 0 15 13 15 54 0 74 -12 101 -51 115 -45 15 -63 14 -90 -8z"/>
 <path d="M5550 5110 l0 -130 105 0 c87 0 105 3 105 15 0 12 -17 15 -90 15 l-90 0 0 40 0 40 45 0 c33 0 45 4 45 15 0 11 -12 15 -45 15 l-45 0 0 45 0 45 90 0 c73 0 90 3 90 15 0 12 -18 15 -105 15 l-105 0 0 -130z"/>
 <path d="M5850 5150 c0 -106 10 -113 62 -49 18 22 43 53 55 67 l22 27 1 -67 c0 -54 3 -68 15 -68 12 0 15 17 15 90 0 105 -8 112 -61 48 -19 -23 -44 -53 -56 -67 l-22 -26 -1 68 c0 53 -3 67 -15 67 -12 0 -15 -17 -15 -90z"/>
 <path d="M6555 5163 c-20 -43 -48 -99 -61 -124 -28 -54 -29 -59 -10 -59 12 0 72 110 106 195 l12 30 24 -55 c48 -109 81 -165 98 -168 14 -3 11 7 -14 60 -78 158 -96 192 -107 195 -6 2 -28 -31 -48 -74z"/>
 <path d="M6800 5150 c0 -73 3 -90 15 -90 12 0 15 17 15 90 0 73 -3 90 -15 90 -12 0 -15 -17 -15 -90z"/>
 <path d="M6940 5150 l0 -90 80 0 c64 0 80 3 80 15 0 12 -14 15 -65 15 -58 0 -65 2 -65 20 0 16 7 20 35 20 24 0 35 5 35 15 0 10 -11 15 -35 15 -31 0 -35 3 -35 25 0 24 2 25 65 25 51 0 65 3 65 15 0 12 -16 15 -80 15 l-80 0 0 -90z"/>
 <path d="M7180 5150 c0 -106 10 -113 62 -49 18 22 43 53 55 67 l22 27 1 -67 c0 -54 3 -68 15 -68 12 0 15 17 15 90 0 105 -8 112 -61 48 -19 -23 -44 -53 -56 -67 l-22 -26 -1 68 c0 53 -3 67 -15 67 -12 0 -15 -17 -15 -90z"/>
 <path d="M7500 5165 l0 -75 -35 0 c-24 0 -35 -5 -35 -15 0 -12 16 -15 85 -15 69 0 85 3 85 15 0 10 -11 15 -35 15 l-35 0 0 75 c0 60 -3 75 -15 75 -12 0 -15 -15 -15 -75z"/>
 <path d="M7724 5233 c-30 -6 -63 -43 -70 -79 -15 -74 115 -121 180 -65 75 65 -3 167 -110 144z m91 -39 c52 -34 15 -104 -55 -104 -56 0 -97 49 -72 86 23 35 88 44 127 18z"/>
 <path d="M8090 5150 l0 -90 66 0 c59 0 68 3 95 29 20 20 29 39 29 61 0 22 -9 41 -29 61 -27 26 -36 29 -95 29 l-66 0 0 -90z m145 48 c11 -11 15 -73 6 -87 -5 -8 -33 -16 -65 -19 l-56 -4 0 62 0 62 55 -4 c30 -3 57 -7 60 -10z"/>
 <path d="M8360 5150 l0 -90 80 0 c64 0 80 3 80 15 0 12 -14 15 -65 15 -58 0 -65 2 -65 20 0 16 7 20 35 20 24 0 35 5 35 15 0 10 -11 15 -35 15 -31 0 -35 3 -35 25 0 24 2 25 65 25 51 0 65 3 65 15 0 12 -16 15 -80 15 l-80 0 0 -90z"/>
 <path d="M8600 5150 c0 -73 3 -90 15 -90 12 0 15 15 15 75 l0 75 55 0 c42 0 55 3 55 15 0 12 -14 15 -70 15 l-70 0 0 -90z"/>
 <path d="M8955 5233 c-16 -3 -36 -9 -42 -15 -22 -18 -4 -27 32 -17 20 6 52 9 73 7 29 -2 37 -7 37 -23 0 -17 -9 -21 -64 -27 -35 -4 -65 -9 -68 -11 -2 -3 -5 -17 -6 -33 -3 -39 51 -61 112 -44 22 6 41 17 41 24 0 10 -8 11 -38 3 -43 -12 -95 -2 -89 16 2 7 30 15 63 19 37 5 64 14 72 25 16 22 15 27 -5 51 -19 22 -69 33 -118 25z"/>
 <path d="M9199 5221 c-19 -16 -24 -30 -27 -90 -4 -60 -2 -71 12 -71 13 0 16 12 16 65 0 60 2 66 25 77 18 8 35 9 53 2 25 -9 27 -14 30 -77 2 -51 6 -67 17 -67 11 0 15 13 15 54 0 74 -12 101 -51 115 -45 15 -63 14 -90 -8z"/>
 <path d="M9450 5150 l0 -90 63 0 c34 0 73 6 87 13 33 17 37 53 9 83 l-23 24 22 30 c20 27 21 30 5 30 -10 0 -29 -16 -42 -35 -19 -28 -30 -35 -57 -35 -32 0 -34 2 -34 35 0 24 -5 35 -15 35 -12 0 -15 -17 -15 -90z m148 -37 c3 -22 0 -23 -57 -23 -59 0 -61 1 -61 25 0 25 2 26 58 23 50 -3 57 -6 60 -25z"/>
 <path d="M1077 5093 c-4 -3 -7 -17 -7 -31 0 -14 -18 -44 -45 -74 -67 -75 -80 -109 -79 -206 0 -49 5 -87 12 -94 7 -7 12 -19 12 -29 0 -9 12 -34 26 -55 46 -67 49 -87 20 -133 -38 -60 -36 -170 5 -191 10 -6 105 -10 213 -10 l194 0 17 -50 c17 -50 42 -103 83 -170 12 -19 26 -44 32 -55 6 -11 19 -33 30 -50 11 -16 24 -40 29 -52 23 -50 94 -153 106 -153 8 0 26 5 40 12 31 14 33 45 5 81 -11 14 -20 29 -20 34 0 7 -27 51 -78 129 -6 10 -17 28 -22 39 -6 11 -19 34 -30 50 -20 31 -46 81 -74 148 l-16 37 44 0 c40 0 45 3 60 34 27 57 21 122 -15 167 -33 42 -34 33 15 120 85 149 79 296 -14 384 -37 35 -60 75 -60 105 0 20 -5 20 -238 20 -131 0 -242 -3 -245 -7z m187 -125 c7 -37 -9 -138 -30 -185 -28 -62 -33 -124 -18 -203 8 -41 14 -76 14 -76 0 -2 -59 3 -71 5 -8 1 -96 181 -114 231 -7 20 -11 47 -10 60 1 14 3 33 4 42 3 46 135 158 186 158 29 0 33 -4 39 -32z m-40 -502 c-3 -8 -16 -22 -29 -30 -13 -9 -25 -27 -27 -41 -2 -14 -6 -25 -10 -25 -5 0 -24 0 -43 0 -19 0 -35 5 -35 11 0 6 14 30 30 55 29 41 34 44 75 44 35 0 43 -3 39 -14z"/>
 <path d="M5373 4852 c-50 -14 -52 -16 -78 -81 -15 -36 -40 -82 -55 -101 -33 -44 -53 -80 -43 -80 4 1 24 14 43 30 43 37 57 38 67 3 5 -16 8 -183 8 -373 0 -317 -1 -347 -18 -372 -21 -30 -58 -46 -131 -54 l-51 -6 -53 60 c-32 38 -65 65 -87 72 -45 15 -44 25 3 40 20 7 41 16 45 19 15 14 -34 61 -76 72 -23 6 -55 18 -70 25 l-28 15 33 27 c18 15 36 26 40 24 5 -1 36 -3 68 -4 51 -1 64 2 86 23 45 42 47 55 14 79 -26 19 -34 20 -69 9 -21 -6 -55 -9 -74 -5 -41 8 -43 13 -52 176 -10 197 -10 196 -59 219 -23 12 -47 21 -53 21 -7 0 -12 -58 -15 -174 -1 -96 -6 -177 -9 -180 -3 -4 -23 1 -43 9 -31 13 -43 14 -72 3 -19 -7 -44 -22 -55 -35 -18 -18 -19 -24 -8 -35 8 -7 24 -14 36 -14 24 -1 132 -42 147 -55 15 -13 -14 -58 -48 -75 -17 -8 -42 -23 -56 -34 -21 -17 -23 -21 -10 -30 8 -5 35 -12 60 -16 25 -3 70 -17 100 -31 50 -22 58 -30 87 -90 18 -37 31 -68 29 -70 -5 -5 -130 38 -153 53 -18 11 -23 24 -23 58 0 43 -1 44 -42 55 -40 10 -45 9 -64 -13 -12 -14 -23 -29 -25 -34 -2 -4 -22 -17 -43 -28 -50 -24 -56 -40 -17 -49 17 -4 33 -10 36 -15 3 -5 -4 -32 -15 -60 -11 -28 -20 -55 -20 -60 0 -21 48 -9 105 25 86 52 89 49 93 -73 1 -56 1 -102 -1 -102 -3 0 -35 12 -73 26 -52 19 -79 24 -110 19 -41 -6 -181 -82 -205 -112 -12 -14 -7 -15 56 -9 66 5 78 3 200 -42 124 -45 130 -48 129 -74 0 -16 -1 -68 -2 -117 l-2 -90 -50 -57 c-52 -59 -67 -92 -56 -121 6 -15 8 -15 19 0 6 9 53 29 102 45 168 54 211 87 201 149 -4 21 -9 67 -12 102 -6 63 -6 63 17 56 13 -4 26 -10 29 -14 3 -3 26 -13 51 -22 45 -15 48 -15 125 13 43 16 84 34 91 40 17 14 17 99 0 123 -13 17 -18 17 -92 2 -72 -14 -86 -14 -155 0 -41 8 -78 18 -83 22 -4 4 -14 47 -23 96 -8 49 -20 97 -26 108 -9 17 -7 18 24 12 59 -13 75 -23 87 -54 12 -27 11 -34 -8 -60 l-22 -30 36 -7 c65 -12 160 47 149 92 -6 23 -5 24 54 24 50 0 73 7 138 39 85 43 137 90 175 159 22 40 22 46 10 100 -7 34 -16 194 -22 397 -5 187 -13 355 -17 374 -11 49 -49 63 -119 43z"/>
 <path d="M9465 4794 c-27 -13 -58 -24 -67 -24 -10 0 -18 -7 -18 -15 0 -19 -19 -19 -44 0 -24 19 -70 19 -88 2 -45 -45 -533 -56 -776 -18 -139 22 -143 22 -174 4 -51 -29 -45 -39 34 -57 93 -22 352 -66 383 -66 34 0 37 -11 19 -64 -11 -32 -15 -72 -13 -131 2 -47 3 -85 1 -85 -1 0 -33 15 -70 34 -72 36 -233 96 -259 96 -26 0 9 -32 158 -146 76 -57 160 -125 189 -151 l52 -48 -59 3 c-70 4 -70 4 -122 -123 -18 -44 -37 -84 -42 -89 -5 -6 -9 -16 -9 -22 0 -16 49 -1 100 31 48 30 59 46 68 93 l7 39 80 -24 c44 -14 85 -26 91 -28 12 -4 59 -133 52 -141 -3 -2 -31 5 -63 16 -59 20 -140 26 -162 12 -15 -10 71 -54 167 -87 96 -32 164 -11 202 65 17 32 17 35 -1 64 -11 17 -37 45 -59 61 -37 27 -40 33 -35 66 6 43 -6 49 -87 41 l-53 -5 7 29 c4 16 9 37 12 47 4 12 -9 33 -40 64 -35 35 -44 49 -35 59 6 7 14 34 17 60 l7 48 38 -33 c20 -18 37 -31 37 -28 0 17 -66 189 -86 226 l-24 43 53 -6 c28 -3 120 -6 202 -8 150 -2 150 -2 224 31 40 18 77 29 81 24 18 -19 32 -364 34 -824 3 -573 8 -542 -88 -586 -59 -27 -65 -28 -231 -28 -158 1 -176 3 -252 28 -46 15 -83 32 -83 36 0 5 34 21 76 36 43 16 78 35 81 44 11 39 22 45 95 58 115 19 130 27 126 65 -3 32 -5 33 -88 54 -121 32 -139 40 -146 69 -3 14 -4 28 -1 31 3 3 53 -3 111 -12 105 -18 105 -18 173 4 97 31 98 33 78 71 -21 42 -37 47 -92 26 -54 -21 -184 -23 -265 -5 -29 6 -104 37 -166 67 -108 54 -114 56 -172 50 -68 -8 -134 -31 -110 -40 8 -3 50 -15 93 -27 43 -12 108 -34 145 -50 66 -28 67 -29 70 -71 l3 -42 -50 6 c-49 6 -71 1 -156 -33 -29 -12 -28 -13 75 -47 58 -19 111 -40 118 -45 7 -6 12 -35 12 -73 0 -55 -3 -66 -23 -82 -13 -10 -22 -24 -19 -32 4 -11 0 -12 -14 -6 -64 26 -159 56 -196 61 -50 7 -132 -12 -122 -28 11 -18 203 -105 301 -137 157 -51 301 -75 453 -75 150 0 212 13 313 67 65 34 99 76 149 183 33 70 33 72 -1 198 -18 68 -21 109 -22 310 -1 127 3 294 10 372 18 232 -9 528 -52 561 -8 7 -28 3 -62 -13z"/>
 <path d="M7663 4706 c-182 -59 -333 -185 -408 -341 -39 -80 -69 -189 -84 -302 -12 -87 -31 -407 -31 -519 0 -88 -13 -120 -50 -128 -36 -7 -244 52 -350 99 -148 64 -187 65 -230 6 -16 -23 -18 -32 -8 -35 66 -19 180 -60 262 -95 54 -23 151 -56 215 -73 104 -27 121 -29 160 -19 54 14 119 61 190 136 52 55 53 57 48 103 -4 26 -13 79 -22 117 -8 39 -18 135 -21 215 -8 179 8 275 67 398 37 76 45 86 107 127 71 47 125 65 137 45 4 -6 9 -28 11 -48 2 -20 10 -55 18 -76 l14 -40 7 35 c4 18 19 45 32 59 48 49 126 156 145 197 16 37 17 48 7 85 -7 24 -19 51 -27 61 -21 24 -100 22 -189 -7z"/>
 <path d="M4405 4634 c-24 -37 -25 -59 -28 -354 -2 -261 -3 -266 -30 -341 -15 -41 -27 -79 -27 -82 0 -10 65 18 100 43 16 11 47 48 69 81 l41 61 0 303 0 303 -31 6 c-56 11 -76 7 -94 -20z"/>
 <path d="M8154 4595 c-48 -170 -47 -154 -50 -707 l-3 -526 34 23 c67 45 117 126 131 212 3 22 1 105 -6 184 -18 218 -14 506 10 682 12 81 18 152 15 157 -9 15 -71 39 -94 37 -15 -1 -24 -15 -37 -62z"/>
 <path d="M6035 4488 c59 -124 101 -243 175 -503 52 -183 95 -412 86 -451 -4 -13 -20 -39 -36 -58 -35 -40 -27 -51 28 -41 50 9 116 49 142 85 45 63 45 86 -1 266 -37 147 -44 204 -20 165 12 -19 87 4 117 36 12 13 28 49 35 78 16 73 20 78 62 70 39 -8 47 -22 47 -92 0 -39 -2 -43 -25 -43 -30 0 -95 -25 -95 -37 1 -13 42 -39 82 -52 51 -17 55 -37 12 -63 l-36 -21 27 -15 c36 -19 118 -11 145 13 20 18 23 18 112 -3 85 -19 95 -20 125 -5 45 21 103 87 103 118 0 58 -93 195 -132 195 -10 0 -29 5 -41 12 -12 6 -51 16 -86 22 -69 12 -72 15 -95 109 -7 28 -6 28 31 22 21 -3 49 -8 61 -11 14 -3 21 -1 18 5 -3 5 0 11 6 14 10 3 10 10 -2 32 -33 64 -72 89 -201 133 -68 23 -143 44 -165 48 -40 6 -43 4 -103 -55 -33 -33 -61 -63 -61 -66 0 -3 15 -5 33 -5 42 0 176 -34 216 -54 31 -16 35 -25 47 -88 6 -35 4 -39 -22 -49 -16 -6 -50 -11 -76 -10 -58 0 -77 -20 -108 -114 -24 -73 -55 -120 -63 -95 -3 8 -33 101 -68 205 -34 105 -71 208 -82 230 -33 68 -87 134 -120 149 -30 14 -103 36 -119 36 -4 0 18 -51 47 -112z m842 -422 c8 -8 33 -111 33 -139 0 -22 -4 -27 -17 -23 -10 3 -30 8 -46 12 -29 7 -32 14 -42 108 l-5 59 36 -6 c20 -3 38 -8 41 -11z"/>
 <path d="M9138 4503 c-24 -21 -61 -54 -83 -73 -22 -19 -62 -56 -89 -82 l-49 -48 35 -27 c73 -59 138 -138 138 -170 0 -32 30 -30 63 5 27 28 34 56 19 78 -9 14 -114 67 -165 84 -47 15 -41 21 43 51 88 30 196 102 204 134 8 30 -6 60 -34 75 -29 15 -37 13 -82 -27z"/>
 <path d="M7014 4450 c-58 -77 -144 -204 -144 -213 0 -26 153 52 218 110 40 37 54 57 59 85 6 40 -4 50 -63 62 -29 6 -34 3 -70 -44z"/>
 <path d="M420 4265 c0 -8 2 -15 4 -15 2 0 6 7 10 15 3 8 1 15 -4 15 -6 0 -10 -7 -10 -15z"/>
 <path d="M6615 3780 c-11 -5 -32 -9 -47 -9 -16 -1 -28 -5 -28 -10 0 -4 27 -27 60 -50 33 -23 58 -47 55 -52 -4 -5 2 -9 12 -9 10 0 49 -27 86 -60 38 -33 74 -60 80 -60 23 0 87 50 102 81 9 16 13 38 10 48 -6 19 -119 76 -223 110 -68 23 -77 24 -107 11z"/>
 </g>
<g id="layer105" fill="#756a5a" stroke="none">
 <path d="M1844 5730 c-78 -16 -217 -54 -310 -85 -146 -48 -182 -64 -261 -118 -51 -34 -93 -66 -93 -70 0 -4 10 -2 23 4 30 16 13 -1 -57 -55 -33 -26 -70 -46 -84 -46 -36 0 -285 -255 -409 -420 -113 -150 -144 -207 -168 -301 -9 -35 -23 -85 -31 -112 -24 -73 -11 -78 15 -6 26 69 100 223 106 218 2 -2 -14 -40 -35 -84 -33 -69 -83 -228 -105 -332 -13 -65 4 -31 34 66 40 130 88 239 164 381 51 95 78 130 152 205 50 50 119 115 155 144 49 40 37 26 -46 -55 -80 -78 -132 -140 -184 -219 -78 -118 -186 -331 -220 -433 -47 -144 -73 -468 -51 -648 14 -114 59 -314 70 -314 4 0 -2 51 -15 113 -38 188 -46 278 -34 412 17 197 41 335 71 418 41 113 154 325 252 475 82 124 145 192 287 308 l35 29 -24 -33 c-38 -54 -16 -49 56 13 38 32 84 68 103 80 294 184 421 248 577 289 178 47 445 51 620 11 247 -56 541 -197 730 -349 233 -188 435 -481 529 -765 57 -173 76 -284 81 -488 6 -208 -2 -294 -43 -452 -84 -321 -235 -560 -509 -803 -337 -300 -722 -439 -1103 -399 -292 31 -644 163 -822 307 -36 29 -126 115 -201 192 -87 88 -153 147 -181 161 -43 21 -100 27 -133 15 -42 -17 -59 -121 -30 -191 18 -43 16 -47 -19 -34 -14 6 -26 7 -26 2 0 -14 131 -185 205 -267 124 -138 378 -309 573 -385 265 -103 424 -133 717 -132 187 0 224 3 339 27 377 77 672 241 952 527 178 184 325 394 435 624 88 186 110 273 164 658 5 34 -8 53 -17 25 -2 -6 -9 56 -16 138 -20 268 -92 537 -206 769 -132 268 -288 442 -619 692 -214 160 -399 243 -668 297 -114 24 -148 26 -355 25 -212 0 -239 -2 -370 -29z m-264 -115 c0 -9 -57 -33 -165 -70 -60 -20 -127 -46 -147 -56 -64 -32 -42 -12 29 28 86 47 283 116 283 98z m-115 -161 c-11 -9 -57 -38 -103 -65 -46 -27 -96 -57 -110 -66 l-27 -16 25 26 c14 14 70 51 125 81 102 57 125 67 90 40z"/>
 <path d="M8190 5529 l0 -131 94 4 c56 2 100 9 109 17 24 19 32 70 14 88 -14 14 -13 18 5 37 24 26 18 73 -13 99 -17 13 -40 17 -115 17 l-94 0 0 -131z m195 87 c16 -12 18 -19 10 -43 -10 -27 -12 -28 -93 -31 l-82 -3 0 46 0 45 73 0 c47 0 80 -5 92 -14z m-14 -116 c21 -12 25 -40 7 -58 -7 -7 -42 -12 -85 -12 l-73 0 0 40 0 40 66 0 c36 0 74 -5 85 -10z"/>
 <path d="M8564 5653 c-30 -6 -63 -43 -70 -79 -15 -74 115 -121 180 -65 75 65 -3 167 -110 144z m91 -39 c52 -34 15 -104 -55 -104 -56 0 -97 49 -72 86 23 35 88 44 127 18z"/>
 <path d="M8800 5570 c0 -106 10 -113 62 -49 18 22 43 53 55 67 l22 27 1 -67 c0 -54 3 -68 15 -68 12 0 15 17 15 90 0 105 -8 112 -61 48 -19 -23 -44 -53 -56 -67 l-22 -26 -1 68 c0 53 -3 67 -15 67 -12 0 -15 -17 -15 -90z"/>
 <path d="M9105 5653 c-16 -3 -36 -9 -42 -15 -22 -18 -4 -27 32 -17 20 6 52 9 73 7 29 -2 37 -7 37 -23 0 -17 -9 -21 -64 -27 -35 -4 -65 -9 -68 -11 -2 -3 -5 -17 -6 -33 -3 -39 51 -61 112 -44 22 6 41 17 41 24 0 10 -8 11 -38 3 -43 -12 -95 -2 -89 16 2 7 30 15 63 19 37 5 64 14 72 25 16 22 15 27 -5 51 -19 22 -69 33 -118 25z"/>
 <path d="M9280 5653 c0 -5 9 -21 21 -38 11 -16 31 -54 44 -82 31 -69 55 -71 83 -5 12 26 33 66 48 90 25 41 25 42 5 42 -11 0 -25 -9 -31 -20 -9 -16 -21 -20 -65 -20 -44 0 -56 4 -65 20 -10 19 -40 28 -40 13z m140 -67 c0 -13 -23 -66 -29 -66 -4 0 -15 16 -24 35 l-17 35 35 0 c19 0 35 -2 35 -4z"/>
 <path d="M9560 5570 c0 -73 3 -90 15 -90 12 0 15 17 15 90 0 73 -3 90 -15 90 -12 0 -15 -17 -15 -90z"/>
 <path d="M6260 5150 c0 -144 2 -170 15 -170 13 0 15 26 15 170 0 144 -2 170 -15 170 -13 0 -15 -26 -15 -170z"/>
 <path d="M3860 5110 c0 -101 3 -130 13 -130 8 0 42 37 78 81 35 45 74 93 86 108 l22 26 1 -107 c0 -89 3 -108 15 -108 13 0 15 21 15 130 0 102 -3 130 -13 130 -8 0 -52 -48 -98 -106 l-84 -106 -3 106 c-2 85 -6 106 -17 106 -12 0 -15 -22 -15 -130z"/>
 <path d="M4160 5233 c0 -5 9 -21 21 -38 11 -16 31 -54 44 -82 31 -69 55 -71 83 -5 12 26 33 66 48 90 25 41 25 42 5 42 -11 0 -25 -9 -31 -20 -9 -16 -21 -20 -65 -20 -44 0 -56 4 -65 20 -10 19 -40 28 -40 13z m140 -67 c0 -13 -23 -66 -29 -66 -4 0 -15 16 -24 35 l-17 35 35 0 c19 0 35 -2 35 -4z"/>
 <path d="M4440 5150 c0 -106 10 -113 62 -49 18 22 43 53 55 67 l22 27 1 -67 c0 -54 3 -68 15 -68 12 0 15 17 15 90 0 105 -8 112 -61 48 -19 -23 -44 -53 -56 -67 l-22 -26 -1 68 c0 53 -3 67 -15 67 -12 0 -15 -17 -15 -90z"/>
 <path d="M4850 5110 l0 -130 105 0 c87 0 105 3 105 15 0 12 -17 15 -90 15 l-90 0 0 40 0 40 55 0 c42 0 55 3 55 15 0 12 -13 15 -55 15 l-55 0 0 60 c0 47 -3 60 -15 60 -13 0 -15 -21 -15 -130z"/>
 <path d="M5169 5221 c-19 -16 -24 -30 -27 -90 -4 -60 -2 -71 12 -71 13 0 16 12 16 65 0 60 2 66 25 77 18 8 35 9 53 2 25 -9 27 -14 30 -77 2 -51 6 -67 17 -67 11 0 15 13 15 54 0 74 -12 101 -51 115 -45 15 -63 14 -90 -8z"/>
 <path d="M5550 5110 l0 -130 105 0 c87 0 105 3 105 15 0 12 -17 15 -90 15 l-90 0 0 40 0 40 45 0 c33 0 45 4 45 15 0 11 -12 15 -45 15 l-45 0 0 45 0 45 90 0 c73 0 90 3 90 15 0 12 -18 15 -105 15 l-105 0 0 -130z"/>
 <path d="M5850 5150 c0 -106 10 -113 62 -49 18 22 43 53 55 67 l22 27 1 -67 c0 -54 3 -68 15 -68 12 0 15 17 15 90 0 105 -8 112 -61 48 -19 -23 -44 -53 -56 -67 l-22 -26 -1 68 c0 53 -3 67 -15 67 -12 0 -15 -17 -15 -90z"/>
 <path d="M6555 5163 c-20 -43 -48 -99 -61 -124 -28 -54 -29 -59 -10 -59 12 0 72 110 106 195 l12 30 24 -55 c48 -109 81 -165 98 -168 14 -3 11 7 -14 60 -78 158 -96 192 -107 195 -6 2 -28 -31 -48 -74z"/>
 <path d="M6800 5150 c0 -73 3 -90 15 -90 12 0 15 17 15 90 0 73 -3 90 -15 90 -12 0 -15 -17 -15 -90z"/>
 <path d="M6940 5150 l0 -90 80 0 c64 0 80 3 80 15 0 12 -14 15 -65 15 -58 0 -65 2 -65 20 0 16 7 20 35 20 24 0 35 5 35 15 0 10 -11 15 -35 15 -31 0 -35 3 -35 25 0 24 2 25 65 25 51 0 65 3 65 15 0 12 -16 15 -80 15 l-80 0 0 -90z"/>
 <path d="M7180 5150 c0 -106 10 -113 62 -49 18 22 43 53 55 67 l22 27 1 -67 c0 -54 3 -68 15 -68 12 0 15 17 15 90 0 105 -8 112 -61 48 -19 -23 -44 -53 -56 -67 l-22 -26 -1 68 c0 53 -3 67 -15 67 -12 0 -15 -17 -15 -90z"/>
 <path d="M7500 5165 l0 -75 -35 0 c-24 0 -35 -5 -35 -15 0 -12 16 -15 85 -15 69 0 85 3 85 15 0 10 -11 15 -35 15 l-35 0 0 75 c0 60 -3 75 -15 75 -12 0 -15 -15 -15 -75z"/>
 <path d="M7724 5233 c-30 -6 -63 -43 -70 -79 -15 -74 115 -121 180 -65 75 65 -3 167 -110 144z m91 -39 c52 -34 15 -104 -55 -104 -56 0 -97 49 -72 86 23 35 88 44 127 18z"/>
 <path d="M8090 5150 l0 -90 66 0 c59 0 68 3 95 29 20 20 29 39 29 61 0 22 -9 41 -29 61 -27 26 -36 29 -95 29 l-66 0 0 -90z m145 48 c11 -11 15 -73 6 -87 -5 -8 -33 -16 -65 -19 l-56 -4 0 62 0 62 55 -4 c30 -3 57 -7 60 -10z"/>
 <path d="M8360 5150 l0 -90 80 0 c64 0 80 3 80 15 0 12 -14 15 -65 15 -58 0 -65 2 -65 20 0 16 7 20 35 20 24 0 35 5 35 15 0 10 -11 15 -35 15 -31 0 -35 3 -35 25 0 24 2 25 65 25 51 0 65 3 65 15 0 12 -16 15 -80 15 l-80 0 0 -90z"/>
 <path d="M8600 5150 c0 -73 3 -90 15 -90 12 0 15 15 15 75 l0 75 55 0 c42 0 55 3 55 15 0 12 -14 15 -70 15 l-70 0 0 -90z"/>
 <path d="M8955 5233 c-16 -3 -36 -9 -42 -15 -22 -18 -4 -27 32 -17 20 6 52 9 73 7 29 -2 37 -7 37 -23 0 -17 -9 -21 -64 -27 -35 -4 -65 -9 -68 -11 -2 -3 -5 -17 -6 -33 -3 -39 51 -61 112 -44 22 6 41 17 41 24 0 10 -8 11 -38 3 -43 -12 -95 -2 -89 16 2 7 30 15 63 19 37 5 64 14 72 25 16 22 15 27 -5 51 -19 22 -69 33 -118 25z"/>
 <path d="M9199 5221 c-19 -16 -24 -30 -27 -90 -4 -60 -2 -71 12 -71 13 0 16 12 16 65 0 60 2 66 25 77 18 8 35 9 53 2 25 -9 27 -14 30 -77 2 -51 6 -67 17 -67 11 0 15 13 15 54 0 74 -12 101 -51 115 -45 15 -63 14 -90 -8z"/>
 <path d="M9450 5150 l0 -90 63 0 c34 0 73 6 87 13 33 17 37 53 9 83 l-23 24 22 30 c20 27 21 30 5 30 -10 0 -29 -16 -42 -35 -19 -28 -30 -35 -57 -35 -32 0 -34 2 -34 35 0 24 -5 35 -15 35 -12 0 -15 -17 -15 -90z m148 -37 c3 -22 0 -23 -57 -23 -59 0 -61 1 -61 25 0 25 2 26 58 23 50 -3 57 -6 60 -25z"/>
 <path d="M1077 5093 c-4 -3 -7 -17 -7 -31 0 -14 -18 -44 -45 -74 -67 -75 -80 -109 -79 -206 0 -49 5 -87 12 -94 7 -7 12 -19 12 -29 0 -9 12 -34 26 -55 46 -67 49 -87 20 -133 -38 -60 -36 -170 5 -191 10 -6 105 -10 213 -10 l194 0 17 -50 c17 -50 42 -103 83 -170 12 -19 26 -44 32 -55 6 -11 19 -33 30 -50 11 -16 24 -40 29 -52 23 -50 94 -153 106 -153 8 0 26 5 40 12 31 14 33 45 5 81 -11 14 -20 29 -20 34 0 7 -27 51 -78 129 -6 10 -17 28 -22 39 -6 11 -19 34 -30 50 -20 31 -46 81 -74 148 l-16 37 44 0 c40 0 45 3 60 34 27 57 21 122 -15 167 -33 42 -34 33 15 120 85 149 79 296 -14 384 -37 35 -60 75 -60 105 0 20 -5 20 -238 20 -131 0 -242 -3 -245 -7z m187 -125 c7 -37 -9 -138 -30 -185 -28 -62 -33 -124 -18 -203 8 -41 14 -76 14 -76 0 -2 -59 3 -71 5 -8 1 -96 181 -114 231 -7 20 -11 47 -10 60 1 14 3 33 4 42 3 46 135 158 186 158 29 0 33 -4 39 -32z m-40 -502 c-3 -8 -16 -22 -29 -30 -13 -9 -25 -27 -27 -41 -2 -14 -6 -25 -10 -25 -5 0 -24 0 -43 0 -19 0 -35 5 -35 11 0 6 14 30 30 55 29 41 34 44 75 44 35 0 43 -3 39 -14z"/>
 <path d="M420 4265 c0 -8 2 -15 4 -15 2 0 6 7 10 15 3 8 1 15 -4 15 -6 0 -10 -7 -10 -15z"/>
 </g>
<g id="layer106" fill="#827663" stroke="none">
 <path d="M1844 5730 c-78 -16 -217 -54 -310 -85 -146 -48 -182 -64 -261 -118 -51 -34 -93 -66 -93 -70 0 -4 10 -2 23 4 30 16 13 -1 -57 -55 -33 -26 -70 -46 -84 -46 -36 0 -285 -255 -409 -420 -113 -150 -144 -207 -168 -301 -9 -35 -23 -85 -31 -112 -24 -73 -11 -78 15 -6 26 69 100 223 106 218 2 -2 -14 -40 -35 -84 -33 -69 -83 -228 -105 -332 -13 -65 4 -31 34 66 40 130 88 239 164 381 51 95 78 130 152 205 50 50 119 115 155 144 49 40 37 26 -46 -55 -80 -78 -132 -140 -184 -219 -78 -118 -186 -331 -220 -433 -47 -144 -73 -468 -51 -648 14 -114 59 -314 70 -314 4 0 -2 51 -15 113 -38 188 -46 278 -34 412 17 197 41 335 71 418 41 113 154 325 252 475 82 124 145 192 287 308 l35 29 -24 -33 c-38 -54 -16 -49 56 13 38 32 84 68 103 80 294 184 421 248 577 289 178 47 445 51 620 11 247 -56 541 -197 730 -349 233 -188 435 -481 529 -765 57 -173 76 -284 81 -488 6 -208 -2 -294 -43 -452 -84 -321 -235 -560 -509 -803 -337 -300 -722 -439 -1103 -399 -292 31 -644 163 -822 307 -36 29 -126 115 -201 192 -87 88 -153 147 -181 161 -43 21 -100 27 -133 15 -42 -17 -59 -121 -30 -191 18 -43 16 -47 -19 -34 -14 6 -26 7 -26 2 0 -14 131 -185 205 -267 124 -138 378 -309 573 -385 265 -103 424 -133 717 -132 187 0 224 3 339 27 377 77 672 241 952 527 178 184 325 394 435 624 88 186 110 273 164 658 5 34 -8 53 -17 25 -2 -6 -9 56 -16 138 -20 268 -92 537 -206 769 -132 268 -288 442 -619 692 -214 160 -399 243 -668 297 -114 24 -148 26 -355 25 -212 0 -239 -2 -370 -29z m-264 -115 c0 -9 -57 -33 -165 -70 -60 -20 -127 -46 -147 -56 -64 -32 -42 -12 29 28 86 47 283 116 283 98z m-115 -161 c-11 -9 -57 -38 -103 -65 -46 -27 -96 -57 -110 -66 l-27 -16 25 26 c14 14 70 51 125 81 102 57 125 67 90 40z"/>
 <path d="M8190 5530 l0 -130 68 0 c131 0 181 34 148 101 -9 18 -11 31 -4 35 17 11 25 48 16 76 -12 35 -52 48 -149 48 l-79 0 0 -130z m195 86 c16 -12 18 -19 10 -43 -10 -27 -12 -28 -93 -31 l-82 -3 0 46 0 45 73 0 c47 0 80 -5 92 -14z m0 -146 l0 -35 -82 -3 -83 -3 0 41 0 41 83 -3 82 -3 0 -35z"/>
 <path d="M8564 5649 c-91 -26 -90 -133 2 -158 69 -19 138 21 136 80 -2 61 -67 98 -138 78z m91 -35 c52 -34 15 -104 -55 -104 -56 0 -97 49 -72 86 23 35 88 44 127 18z"/>
 <path d="M8800 5570 c0 -103 8 -110 55 -53 17 20 42 50 57 67 l27 31 1 -67 c0 -54 3 -68 15 -68 12 0 15 17 15 90 0 103 -8 110 -55 53 -16 -20 -42 -50 -57 -67 l-27 -31 -1 68 c0 53 -3 67 -15 67 -12 0 -15 -17 -15 -90z"/>
 <path d="M9114 5650 c-37 -8 -54 -18 -54 -31 0 -6 8 -6 20 1 11 6 44 10 73 8 44 -3 52 -6 55 -24 3 -20 -3 -22 -67 -29 -56 -6 -70 -10 -74 -26 -9 -32 24 -62 69 -62 51 0 84 11 84 27 0 10 -8 11 -38 3 -43 -12 -95 -2 -89 16 2 7 33 17 68 22 62 10 64 11 67 41 2 17 -3 35 -10 41 -19 15 -68 21 -104 13z"/>
 <path d="M9280 5651 c0 -6 5 -13 11 -17 6 -4 26 -40 45 -80 42 -94 62 -98 94 -20 12 30 33 69 46 88 28 38 15 51 -20 19 -32 -30 -132 -31 -141 -1 -6 20 -35 29 -35 11z m140 -66 c0 -3 -7 -22 -16 -43 -11 -25 -18 -32 -21 -22 -3 8 -12 27 -20 43 -13 27 -13 27 22 27 19 0 35 -2 35 -5z"/>
 <path d="M9560 5570 c0 -73 3 -90 15 -90 12 0 15 17 15 90 0 73 -3 90 -15 90 -12 0 -15 -17 -15 -90z"/>
 <path d="M6260 5150 c0 -144 2 -170 15 -170 13 0 15 26 15 170 0 144 -2 170 -15 170 -13 0 -15 -26 -15 -170z"/>
 <path d="M3860 5109 c0 -108 2 -130 14 -127 8 2 53 52 100 111 l86 108 0 -110 c0 -92 3 -111 15 -111 13 0 15 21 15 130 0 97 -3 130 -12 130 -7 0 -51 -48 -98 -107 l-85 -107 -3 107 c-2 86 -6 107 -17 107 -12 0 -15 -23 -15 -131z"/>
 <path d="M4160 5231 c0 -6 5 -13 11 -17 6 -4 26 -40 45 -80 42 -94 62 -98 94 -20 12 30 33 69 46 88 28 38 15 51 -20 19 -32 -30 -132 -31 -141 -1 -6 20 -35 29 -35 11z m140 -66 c0 -3 -7 -22 -16 -43 -11 -25 -18 -32 -21 -22 -3 8 -12 27 -20 43 -13 27 -13 27 22 27 19 0 35 -2 35 -5z"/>
 <path d="M4440 5150 c0 -103 8 -110 55 -53 17 20 42 50 57 67 l27 31 1 -67 c0 -54 3 -68 15 -68 12 0 15 17 15 90 0 103 -8 110 -55 53 -16 -20 -42 -50 -57 -67 l-27 -31 -1 68 c0 53 -3 67 -15 67 -12 0 -15 -17 -15 -90z"/>
 <path d="M4850 5110 l0 -130 100 0 c82 0 100 3 100 15 0 12 -16 15 -85 15 l-85 0 0 40 0 40 55 0 c42 0 55 3 55 15 0 12 -13 15 -55 15 l-55 0 0 60 c0 47 -3 60 -15 60 -13 0 -15 -21 -15 -130z"/>
 <path d="M5184 5225 c-34 -14 -44 -42 -44 -121 0 -32 4 -44 15 -44 12 0 15 14 15 69 0 68 0 70 29 76 16 3 40 3 55 -1 25 -6 26 -9 26 -75 0 -55 3 -69 15 -69 29 0 16 144 -14 159 -33 17 -67 19 -97 6z"/>
 <path d="M5550 5110 l0 -130 105 0 c87 0 105 3 105 15 0 12 -17 15 -90 15 l-90 0 0 40 0 40 45 0 c33 0 45 4 45 15 0 11 -12 15 -45 15 l-45 0 0 45 0 45 90 0 c73 0 90 3 90 15 0 12 -18 15 -105 15 l-105 0 0 -130z"/>
 <path d="M5850 5150 c0 -103 8 -110 55 -53 17 20 42 50 57 67 l27 31 1 -67 c0 -54 3 -68 15 -68 12 0 15 17 15 90 0 103 -8 110 -55 53 -16 -20 -42 -50 -57 -67 l-27 -31 -1 68 c0 53 -3 67 -15 67 -12 0 -15 -17 -15 -90z"/>
 <path d="M6565 5183 c-15 -32 -43 -88 -61 -125 -38 -76 -39 -78 -21 -78 12 0 50 67 97 174 l21 50 31 -65 c61 -130 76 -154 92 -157 13 -3 8 15 -25 80 -23 46 -52 103 -64 127 -12 25 -26 46 -32 48 -6 2 -23 -22 -38 -54z"/>
 <path d="M6800 5150 c0 -73 3 -90 15 -90 12 0 15 17 15 90 0 73 -3 90 -15 90 -12 0 -15 -17 -15 -90z"/>
 <path d="M6940 5150 l0 -90 80 0 c64 0 80 3 80 15 0 12 -14 15 -65 15 -58 0 -65 2 -65 20 0 16 7 20 30 20 20 0 30 5 30 15 0 10 -10 15 -30 15 -25 0 -30 4 -30 25 0 24 2 25 65 25 51 0 65 3 65 15 0 12 -16 15 -80 15 l-80 0 0 -90z"/>
 <path d="M7180 5150 c0 -103 8 -110 55 -53 17 20 42 50 57 67 l27 31 1 -67 c0 -54 3 -68 15 -68 12 0 15 17 15 90 0 103 -8 110 -55 53 -16 -20 -42 -50 -57 -67 l-27 -31 -1 68 c0 53 -3 67 -15 67 -12 0 -15 -17 -15 -90z"/>
 <path d="M7500 5165 l0 -75 -35 0 c-24 0 -35 -5 -35 -15 0 -12 16 -15 80 -15 64 0 80 3 80 15 0 10 -10 15 -30 15 l-30 0 0 75 c0 60 -3 75 -15 75 -12 0 -15 -15 -15 -75z"/>
 <path d="M7724 5229 c-91 -26 -90 -133 2 -158 69 -19 138 21 136 80 -2 61 -67 98 -138 78z m91 -35 c52 -34 15 -104 -55 -104 -56 0 -97 49 -72 86 23 35 88 44 127 18z"/>
 <path d="M8090 5150 l0 -90 50 0 c102 0 153 49 128 121 -13 38 -58 59 -128 59 l-50 0 0 -90z m134 50 c22 -8 26 -16 26 -50 0 -34 -4 -42 -26 -50 -14 -6 -43 -10 -65 -10 l-39 0 0 60 0 60 39 0 c22 0 51 -4 65 -10z"/>
 <path d="M8360 5150 l0 -90 80 0 c64 0 80 3 80 15 0 12 -14 15 -65 15 -58 0 -65 2 -65 20 0 16 7 20 30 20 20 0 30 5 30 15 0 10 -10 15 -30 15 -25 0 -30 4 -30 25 0 24 2 25 65 25 51 0 65 3 65 15 0 12 -16 15 -80 15 l-80 0 0 -90z"/>
 <path d="M8600 5150 c0 -73 3 -90 15 -90 12 0 15 15 15 75 l0 75 50 0 c38 0 50 4 50 15 0 12 -14 15 -65 15 l-65 0 0 -90z"/>
 <path d="M8964 5230 c-37 -8 -54 -18 -54 -31 0 -6 8 -6 20 1 11 6 44 10 73 8 44 -3 52 -6 55 -24 3 -20 -3 -22 -67 -29 -56 -6 -70 -10 -74 -26 -9 -32 24 -62 69 -62 51 0 84 11 84 27 0 10 -8 11 -38 3 -43 -12 -95 -2 -89 16 2 7 33 17 68 22 62 10 64 11 67 41 2 17 -3 35 -10 41 -19 15 -68 21 -104 13z"/>
 <path d="M9214 5225 c-34 -14 -44 -42 -44 -121 0 -32 4 -44 15 -44 12 0 15 14 15 69 0 68 0 70 29 76 16 3 40 3 55 -1 25 -6 26 -9 26 -75 0 -55 3 -69 15 -69 29 0 16 144 -14 159 -33 17 -67 19 -97 6z"/>
 <path d="M9450 5150 l0 -90 58 1 c75 1 103 10 112 34 10 26 -5 65 -25 65 -20 0 -19 10 5 40 23 29 25 40 8 40 -7 -1 -22 -15 -33 -33 -16 -25 -28 -33 -58 -35 -36 -3 -37 -3 -37 32 0 25 -4 36 -15 36 -12 0 -15 -17 -15 -90z m150 -35 c0 -24 -3 -25 -60 -25 -57 0 -60 1 -60 25 0 24 3 25 60 25 57 0 60 -1 60 -25z"/>
 <path d="M1077 5093 c-4 -3 -7 -18 -7 -33 0 -17 -12 -38 -34 -59 -57 -55 -91 -135 -90 -211 0 -56 7 -79 47 -166 26 -55 47 -106 47 -113 0 -6 -10 -25 -22 -41 -29 -40 -38 -106 -19 -151 l15 -36 96 -7 c52 -3 147 -6 210 -6 l115 0 28 -83 c16 -45 34 -89 41 -97 21 -25 146 -237 146 -248 0 -5 6 -15 14 -21 8 -7 22 -27 31 -46 9 -19 22 -35 30 -35 19 0 65 21 65 30 0 10 -48 110 -68 142 -58 91 -143 239 -157 273 -10 22 -21 48 -26 57 -13 25 -13 25 37 33 37 5 47 11 56 33 27 70 18 130 -29 183 -12 15 -12 22 1 54 9 20 24 47 35 61 29 37 54 131 52 194 -3 71 -29 128 -85 188 -35 37 -46 57 -46 81 l0 31 -238 0 c-131 0 -242 -3 -245 -7z m189 -128 c3 -19 3 -52 -1 -72 -4 -21 -9 -48 -11 -60 -1 -12 -9 -37 -17 -55 -31 -69 -37 -120 -22 -183 21 -90 21 -92 -21 -91 -35 1 -39 5 -75 71 -21 39 -43 81 -50 95 -6 14 -15 33 -20 43 -17 32 -19 107 -5 140 26 63 130 147 182 147 30 0 34 -3 40 -35z m-53 -517 c-18 -18 -36 -44 -41 -57 -7 -19 -16 -23 -55 -25 -30 -1 -47 2 -47 10 0 6 16 32 35 58 35 44 38 46 87 46 l52 0 -31 -32z"/>
 <path d="M420 4265 c0 -8 2 -15 4 -15 2 0 6 7 10 15 3 8 1 15 -4 15 -6 0 -10 -7 -10 -15z"/>
 </g>
<g id="layer107" fill="#83a8ff" stroke="none">
 <path d="M1844 5730 c-78 -16 -217 -54 -310 -85 -146 -48 -182 -64 -261 -118 -51 -34 -93 -66 -93 -70 0 -4 10 -2 23 4 30 16 13 -1 -57 -55 -33 -26 -70 -46 -84 -46 -36 0 -285 -255 -409 -420 -113 -150 -144 -207 -168 -301 -9 -35 -23 -85 -31 -112 -24 -73 -11 -78 15 -6 26 69 100 223 106 218 2 -2 -14 -40 -35 -84 -33 -69 -83 -228 -105 -332 -13 -65 4 -31 34 66 40 130 88 239 164 381 51 95 78 130 152 205 50 50 119 115 155 144 49 40 37 26 -46 -55 -80 -78 -132 -140 -184 -219 -78 -118 -186 -331 -220 -433 -47 -144 -73 -468 -51 -648 14 -114 59 -314 70 -314 4 0 -2 51 -15 113 -38 188 -46 278 -34 412 17 197 41 335 71 418 41 113 154 325 252 475 82 124 145 192 287 308 l35 29 -24 -33 c-38 -54 -16 -49 56 13 38 32 84 68 103 80 294 184 421 248 577 289 178 47 445 51 620 11 247 -56 541 -197 730 -349 233 -188 435 -481 529 -765 57 -173 76 -284 81 -488 6 -208 -2 -294 -43 -452 -84 -321 -235 -560 -509 -803 -337 -300 -722 -439 -1103 -399 -292 31 -644 163 -822 307 -36 29 -126 115 -201 192 -87 88 -153 147 -181 161 -43 21 -100 27 -133 15 -42 -17 -59 -121 -30 -191 18 -43 16 -47 -19 -34 -14 6 -26 7 -26 2 0 -14 131 -185 205 -267 124 -138 378 -309 573 -385 265 -103 424 -133 717 -132 187 0 224 3 339 27 377 77 672 241 952 527 178 184 325 394 435 624 88 186 110 273 164 658 5 34 -8 53 -17 25 -2 -6 -9 56 -16 138 -20 268 -92 537 -206 769 -132 268 -288 442 -619 692 -214 160 -399 243 -668 297 -114 24 -148 26 -355 25 -212 0 -239 -2 -370 -29z m-264 -115 c0 -9 -57 -33 -165 -70 -60 -20 -127 -46 -147 -56 -64 -32 -42 -12 29 28 86 47 283 116 283 98z m-115 -161 c-11 -9 -57 -38 -103 -65 -46 -27 -96 -57 -110 -66 l-27 -16 25 26 c14 14 70 51 125 81 102 57 125 67 90 40z"/>
 <path d="M420 4265 c0 -8 2 -15 4 -15 2 0 6 7 10 15 3 8 1 15 -4 15 -6 0 -10 -7 -10 -15z"/>
 </g>

</svg>