<!DOCTYPE svg PUBLIC "-//W3C//DTD SVG 20010904//EN" "http://www.w3.org/TR/2001/REC-SVG-20010904/DTD/svg10.dtd">
<svg version="1.0" xmlns="http://www.w3.org/2000/svg" width="1024px" height="768px" viewBox="0 0 10240 7680" preserveAspectRatio="xMidYMid meet">
<g id="layer101" fill="#232c43" stroke="none">
 <path d="M845 3840 c0 -2115 1 -2980 2 -1922 2 1057 2 2787 0 3845 -1 1057 -2 192 -2 -1923z"/>
 <path d="M9835 3840 c0 -2115 1 -2980 2 -1922 2 1057 2 2787 0 3845 -1 1057 -2 192 -2 -1923z"/>
 <path d="M4890 7620 c-58 -5 -170 -23 -250 -40 -80 -17 -180 -38 -223 -45 -162 -30 -620 -172 -777 -241 -43 -18 -83 -34 -88 -34 -24 0 -412 -275 -412 -292 0 -10 -2 -11 100 52 168 104 230 139 337 188 61 29 117 52 124 52 7 0 67 18 134 40 67 21 142 42 166 46 l44 6 -58 -37 c-32 -20 -88 -48 -125 -62 -113 -43 -234 -83 -249 -83 -7 0 -77 -26 -155 -58 -148 -60 -187 -85 -356 -225 -78 -64 -85 -68 -120 -62 -36 6 -41 3 -140 -87 -191 -173 -494 -491 -597 -628 -22 -29 -62 -81 -90 -116 -193 -245 -288 -404 -320 -535 -16 -62 -76 -277 -116 -410 -21 -73 -23 -89 -10 -89 11 0 31 54 31 84 0 12 16 59 36 106 19 47 44 105 53 130 48 118 133 279 157 295 14 9 27 15 29 13 2 -2 -19 -39 -45 -83 -27 -44 -50 -85 -50 -91 0 -6 -17 -47 -37 -90 -20 -43 -46 -115 -58 -159 -12 -44 -36 -129 -53 -190 -54 -192 -120 -449 -126 -489 -10 -76 12 -19 53 134 56 211 137 457 183 559 21 46 38 87 38 92 0 18 169 353 255 504 91 159 256 325 695 699 43 37 -101 -125 -201 -225 -52 -53 -114 -106 -136 -117 -54 -28 -123 -113 -268 -335 -174 -267 -285 -476 -388 -732 -100 -248 -123 -357 -157 -735 -24 -269 -26 -496 -4 -657 8 -65 19 -154 24 -197 8 -68 44 -230 106 -473 9 -35 22 -63 29 -63 9 0 4 34 -16 123 -49 217 -99 499 -110 622 -16 178 2 435 55 790 14 88 27 181 31 208 3 26 18 80 32 120 14 39 35 101 48 137 30 85 186 406 236 485 21 34 39 65 39 69 0 4 20 39 45 77 25 38 45 72 45 75 0 7 204 315 271 409 35 49 91 109 145 155 48 41 152 133 231 203 79 70 143 124 143 119 0 -5 -8 -16 -17 -23 -16 -14 -103 -142 -103 -153 0 -22 43 5 116 74 146 138 243 208 406 294 43 23 125 74 183 114 57 39 107 72 110 72 2 0 28 15 57 33 104 64 459 227 497 227 6 0 62 15 124 34 199 61 423 90 677 90 325 0 630 -50 925 -154 44 -15 103 -36 130 -45 175 -62 501 -224 715 -356 158 -98 409 -292 402 -312 -1 -5 2 -6 7 -3 14 9 254 -237 355 -364 127 -159 231 -310 307 -445 83 -147 259 -530 259 -563 0 -5 20 -70 45 -143 25 -74 45 -143 45 -155 0 -12 11 -67 25 -124 58 -234 68 -336 68 -710 0 -309 -2 -358 -22 -474 -117 -692 -386 -1235 -845 -1705 -108 -110 -328 -310 -414 -376 -29 -22 -76 -58 -105 -81 -48 -37 -94 -68 -247 -166 -149 -95 -383 -205 -583 -274 -350 -120 -768 -169 -1114 -130 -185 20 -389 60 -538 103 -66 20 -149 44 -185 54 -36 10 -103 34 -149 54 -45 19 -87 35 -93 35 -9 0 -211 89 -251 111 -10 6 -66 34 -125 64 -104 52 -174 97 -284 181 -78 60 -318 294 -315 307 1 7 -3 11 -9 10 -7 -1 -73 65 -147 146 -136 148 -245 238 -327 270 -172 66 -259 46 -309 -69 -31 -71 -36 -134 -18 -200 21 -77 57 -172 70 -189 10 -11 8 -13 -13 -6 -14 4 -47 19 -73 32 -53 26 -70 24 -44 -5 10 -10 17 -22 17 -26 0 -4 23 -37 50 -74 28 -37 65 -87 83 -112 69 -95 155 -199 247 -299 149 -164 221 -227 384 -343 48 -35 114 -81 145 -103 49 -35 95 -63 301 -185 196 -116 651 -283 910 -335 365 -72 478 -84 815 -85 353 -1 532 16 783 76 57 13 112 24 121 24 29 0 349 105 466 153 193 79 362 165 514 261 36 23 72 46 81 51 49 30 163 111 221 157 141 112 177 143 278 236 58 54 110 97 115 97 6 0 11 5 11 11 0 6 44 58 97 115 53 57 107 118 119 134 13 17 39 48 58 71 36 41 104 128 184 235 81 110 298 454 318 506 4 12 19 39 32 60 26 41 121 241 186 391 48 110 114 336 130 442 6 41 27 174 46 295 51 331 69 485 56 485 -4 0 -21 -39 -39 -87 -21 -57 -30 -74 -27 -50 13 81 4 362 -15 529 -11 96 -36 237 -55 318 -20 80 -40 168 -44 195 -5 28 -28 107 -50 176 -23 69 -41 132 -41 140 0 8 -20 66 -45 129 -25 63 -45 119 -45 124 0 5 -18 50 -41 100 -189 423 -361 683 -653 985 -78 81 -296 277 -395 356 -35 28 -80 64 -100 80 -77 64 -258 200 -349 263 -152 104 -357 210 -557 290 -116 46 -385 132 -414 132 -10 0 -66 11 -123 24 -253 59 -329 67 -698 71 -190 2 -392 0 -450 -5z m-1030 -554 c0 -9 -305 -203 -383 -242 -46 -24 -115 -68 -242 -155 -68 -47 -56 -33 65 72 118 104 130 111 355 226 225 114 205 104 205 99z"/>
 <path d="M2990 6230 l0 -60 -77 -72 c-142 -136 -196 -250 -195 -418 0 -140 28 -220 159 -453 l55 -97 -51 -67 c-89 -115 -100 -201 -42 -346 l29 -72 417 -5 418 -5 8 -22 8 -23 -442 0 c-342 1 -446 4 -459 13 -18 14 -51 105 -69 187 -10 48 -12 50 -45 50 -22 0 -32 4 -29 13 4 8 -7 13 -33 15 -32 2 -42 -2 -59 -26 -18 -24 -26 -27 -62 -24 -22 2 -41 8 -41 13 0 5 -11 9 -24 9 -20 0 -41 22 -38 40 0 3 -20 3 -44 1 -24 -1 -44 -8 -44 -13 0 -6 -13 -8 -28 -6 -26 4 -29 1 -26 -21 1 -14 -4 -30 -13 -36 -10 -8 -14 -20 -10 -34 4 -16 2 -21 -8 -17 -9 3 -12 -3 -10 -20 1 -13 -2 -27 -6 -30 -12 -7 -11 -81 1 -89 5 -3 7 -12 4 -19 -4 -10 2 -12 22 -8 21 4 26 2 22 -9 -5 -12 2 -14 28 -11 37 4 68 -13 60 -34 -3 -8 4 -11 20 -9 16 1 23 -2 21 -9 -3 -8 5 -11 24 -8 18 3 29 0 29 -7 0 -8 5 -9 19 -1 31 16 43 12 37 -12 -3 -13 -3 -17 0 -10 8 17 27 15 21 -2 -4 -10 -1 -13 7 -10 8 3 23 -6 34 -20 16 -21 28 -26 67 -26 34 0 46 -4 42 -12 -3 -10 11 -12 56 -10 49 3 59 1 54 -11 -4 -11 3 -14 28 -14 35 1 69 -19 59 -34 -3 -5 0 -8 8 -7 7 2 12 -4 12 -13 -1 -11 5 -14 22 -11 14 2 24 0 24 -7 0 -6 8 -11 18 -11 23 0 42 -19 42 -42 0 -10 6 -18 13 -18 15 0 15 -62 -1 -68 -7 -2 -12 -23 -12 -48 l0 -44 63 -1 c34 0 56 -3 50 -6 -24 -9 -13 -20 16 -15 22 3 33 -1 43 -17 14 -23 63 -29 71 -8 4 10 6 10 6 0 1 -9 18 -13 52 -13 43 0 50 -3 45 -16 -5 -13 -1 -15 20 -11 18 3 32 -2 50 -20 13 -13 24 -28 24 -33 0 -6 10 -10 23 -10 26 0 54 -35 34 -44 -7 -3 -3 -4 8 -3 11 1 19 -2 18 -8 -1 -6 29 -10 72 -10 57 0 71 3 67 14 -4 10 7 12 51 10 33 -3 55 0 54 6 -1 6 15 11 36 13 39 3 71 -13 64 -32 -3 -7 23 -11 78 -11 62 0 81 3 78 13 -4 8 5 12 23 12 26 -1 35 -12 99 -123 81 -140 118 -187 149 -187 30 0 113 54 120 78 10 29 -2 52 -152 304 -77 128 -149 249 -160 268 -11 19 -46 80 -79 135 -58 97 -128 267 -116 279 4 3 43 6 87 6 l81 0 30 77 c56 147 45 229 -46 350 l-49 64 70 121 c146 255 181 427 120 603 -31 90 -64 138 -155 228 -83 82 -83 82 -90 145 l-7 62 -484 0 -484 0 0 -60z m368 -175 c10 -28 12 -67 8 -126 -7 -114 -22 -178 -61 -274 -18 -44 -39 -108 -45 -142 -18 -93 -9 -233 22 -320 14 -40 23 -74 20 -78 -11 -11 -150 -5 -159 8 -5 6 -17 32 -26 57 -9 25 -46 98 -83 164 -82 147 -114 231 -121 318 -11 126 40 221 174 326 43 33 89 72 103 86 22 25 30 27 90 24 l65 -3 13 -40z m-67 -1021 c-11 -14 -37 -38 -58 -53 -32 -23 -42 -39 -56 -90 l-17 -61 -85 0 c-75 0 -85 2 -85 18 0 24 47 96 104 160 l48 52 85 0 84 0 -20 -26z"/>
 <path d="M6798 6015 c-4 -4 -67 -6 -141 -6 -103 2 -136 -1 -140 -11 -3 -8 -19 -13 -40 -12 -28 2 -34 -1 -30 -14 5 -12 1 -14 -19 -10 -18 3 -25 1 -21 -8 3 -9 -6 -11 -36 -8 -32 3 -39 1 -35 -11 4 -10 0 -15 -15 -15 -13 0 -19 5 -15 13 4 10 -6 14 -36 14 -27 0 -40 -4 -40 -14 0 -10 -25 -13 -116 -13 -92 0 -115 3 -111 13 4 10 -5 13 -31 12 -21 -1 -41 3 -45 9 -6 7 -10 7 -13 1 -2 -6 -46 -9 -111 -7 -89 3 -109 1 -119 -13 -10 -14 -12 -14 -18 0 -5 13 -59 15 -435 15 -385 0 -431 -2 -439 -16 -8 -15 -10 -15 -15 1 -6 14 -22 16 -127 14 -114 -2 -121 -1 -145 21 -19 18 -22 26 -13 32 7 4 -29 8 -81 8 -92 0 -93 0 -88 -22 35 -153 39 -178 34 -258 -6 -91 -26 -190 -38 -190 -4 0 -5 -8 -2 -19 2 -10 -2 -25 -11 -33 -8 -9 -12 -18 -9 -22 4 -3 -1 -6 -11 -6 -14 0 -15 -2 -4 -14 7 -8 17 -11 22 -8 5 3 7 -2 4 -10 -5 -12 6 -15 59 -17 46 -1 69 2 74 11 7 10 9 10 9 1 0 -10 278 -13 1342 -13 771 0 1344 -4 1347 -9 3 -5 48 -9 99 -10 76 -1 93 1 98 14 4 9 12 14 19 12 8 -4 12 11 14 48 1 40 -2 54 -14 59 -10 3 -14 14 -11 30 3 19 1 23 -11 19 -13 -5 -15 -1 -11 20 3 15 1 24 -4 21 -12 -8 -49 26 -42 37 3 5 -7 9 -21 9 -19 0 -26 4 -22 13 4 10 -2 13 -21 9 -20 -4 -24 -2 -19 12 5 13 1 15 -23 11 -30 -5 -42 8 -17 19 6 3 2 3 -10 0 -24 -6 -32 11 -10 19 6 3 -3 6 -21 6 -18 1 -31 5 -27 10 3 5 -9 11 -27 13 -32 3 -33 4 -36 56 -2 30 -7 50 -13 47 -5 -4 -9 6 -9 20 0 14 -4 24 -9 21 -5 -3 -25 12 -45 34 -20 22 -42 39 -48 38 -7 -2 -12 3 -10 10 1 6 -4 12 -12 12 -7 0 -26 3 -42 6 -16 3 -32 2 -36 -1z"/>
 <path d="M5315 5382 c-88 -2 -132 -7 -137 -15 -6 -9 -8 -9 -8 1 0 9 -31 12 -120 12 -147 0 -160 -8 -160 -95 0 -30 -4 -55 -10 -55 -5 0 -10 -10 -10 -22 0 -21 -5 -23 -44 -22 -36 2 -43 -1 -39 -13 5 -12 1 -14 -18 -8 -17 4 -20 4 -10 -3 12 -9 12 -13 -2 -26 -8 -9 -20 -16 -26 -16 -6 0 -11 -16 -11 -35 0 -25 -4 -33 -14 -29 -10 4 -13 -4 -13 -28 0 -48 -19 -89 -38 -82 -12 5 -14 2 -7 -17 9 -24 2 -36 -42 -69 -13 -9 -17 -10 -12 -2 4 7 2 12 -4 12 -7 0 -9 -8 -5 -22 6 -16 4 -20 -8 -15 -11 4 -13 0 -10 -14 4 -13 -4 -27 -22 -43 -15 -13 -25 -28 -21 -34 3 -5 -1 -12 -9 -16 -11 -4 -15 -24 -16 -78 -1 -40 -4 -63 -6 -50 -2 12 -9 22 -14 22 -5 0 -9 25 -9 55 0 30 5 55 10 55 6 0 10 9 10 19 0 11 4 21 9 23 4 2 10 24 13 49 l5 46 -126 -1 -126 -1 -3 -32 c-2 -18 -7 -33 -11 -33 -5 0 -6 -12 -3 -26 3 -18 1 -25 -6 -20 -6 4 -8 -1 -5 -13 3 -10 -1 -30 -8 -42 -7 -13 -12 -27 -11 -31 1 -5 -3 -8 -8 -8 -6 0 -10 -8 -10 -18 0 -38 -31 -52 -118 -52 l-82 0 4 -40 c2 -21 10 -50 18 -62 9 -13 19 -38 22 -56 4 -17 12 -32 16 -32 5 0 7 -7 4 -15 -4 -8 -1 -15 5 -15 6 0 17 -13 26 -30 9 -16 13 -30 10 -30 -3 0 4 -9 15 -20 11 -11 20 -27 20 -35 0 -8 5 -15 10 -15 6 0 10 -7 10 -15 0 -8 5 -15 11 -15 5 0 8 -4 5 -8 -3 -5 6 -15 20 -23 17 -8 24 -19 21 -31 -3 -11 0 -18 10 -18 9 0 13 -6 9 -15 -3 -8 -1 -15 4 -15 6 0 10 -6 10 -13 0 -7 9 -19 20 -27 11 -8 20 -20 20 -27 0 -7 4 -13 9 -13 5 0 12 -12 15 -26 10 -40 36 -74 57 -74 11 0 16 5 14 13 -4 9 26 11 140 7 126 -4 144 -3 140 10 -4 13 11 15 102 13 97 -1 109 -4 125 -23 13 -16 25 -21 44 -17 18 3 24 1 20 -9 -4 -10 15 -13 89 -13 l95 0 0 39 c0 30 -7 45 -31 69 -17 17 -41 31 -54 31 -13 0 -27 5 -30 10 -3 6 -15 10 -26 10 -10 0 -19 5 -19 10 0 6 -18 10 -40 10 -28 0 -43 5 -47 16 -3 8 -12 13 -19 10 -7 -3 -17 2 -22 11 -5 8 -15 14 -23 11 -7 -2 -39 22 -70 54 -31 32 -62 58 -69 58 -6 0 -8 5 -5 11 5 7 -18 10 -74 7 -73 -3 -82 -1 -78 14 4 14 1 15 -18 8 -14 -5 -27 -4 -34 3 -14 14 -15 67 -1 67 6 0 21 11 34 25 25 27 52 33 59 13 8 -25 14 -3 9 40 -2 23 -8 42 -14 42 -15 0 -35 24 -30 38 2 6 -3 15 -12 18 -9 3 -16 13 -16 22 0 11 13 3 40 -23 22 -21 40 -47 40 -56 0 -10 5 -21 10 -24 12 -8 13 -65 1 -65 -5 0 -11 -17 -12 -37 l-4 -38 49 4 c41 3 48 1 43 -12 -4 -11 -2 -14 9 -10 7 3 22 2 31 -1 15 -6 15 -9 3 -17 -12 -9 -12 -10 3 -5 13 4 35 -12 80 -59 47 -49 69 -65 90 -65 28 0 37 -15 15 -23 -8 -2 -9 -8 -4 -13 5 -5 11 -4 13 4 7 17 40 15 47 -4 4 -11 14 -15 32 -11 16 3 28 -1 31 -9 3 -8 14 -14 24 -14 10 0 19 -4 19 -10 0 -5 11 -10 24 -10 37 0 56 -39 56 -114 0 -54 3 -64 15 -60 13 5 14 2 6 -19 -8 -22 -7 -24 10 -20 21 6 27 -12 7 -21 -7 -3 -2 -3 11 0 20 5 23 3 17 -12 -4 -10 -4 -15 0 -11 4 3 20 -3 36 -15 24 -16 29 -27 26 -48 -3 -20 -1 -26 9 -23 10 4 13 -8 13 -49 0 -45 -4 -59 -24 -77 -14 -13 -29 -20 -34 -17 -6 4 -9 -5 -7 -20 1 -16 -2 -24 -9 -21 -8 3 -11 -5 -8 -26 4 -25 2 -29 -13 -23 -15 5 -17 1 -13 -27 3 -27 0 -33 -15 -33 -14 0 -17 6 -14 22 3 16 0 21 -11 16 -12 -4 -14 1 -10 21 l5 27 -229 0 c-150 0 -227 -3 -223 -10 4 -6 -5 -10 -20 -10 -16 0 -34 -9 -45 -22 -13 -17 -27 -22 -52 -20 -19 2 -58 -6 -86 -17 -66 -26 -94 -26 -117 0 -13 14 -29 19 -50 17 -22 -2 -29 1 -28 12 2 12 -12 15 -82 15 -72 0 -84 -2 -80 -16 4 -12 -3 -15 -37 -13 -24 2 -45 3 -47 3 -2 1 1 7 7 14 8 9 -11 11 -94 7 -65 -3 -106 -1 -109 5 -2 6 -3 1 -2 -10 2 -17 -3 -20 -35 -18 -25 1 -35 -2 -32 -10 3 -8 -7 -12 -31 -11 -20 1 -32 -2 -29 -7 3 -6 0 -16 -6 -24 -15 -18 -190 -22 -190 -5 0 6 -25 10 -56 10 -30 0 -53 -4 -50 -9 3 -4 -4 -17 -15 -27 -14 -12 -22 -15 -27 -7 -4 6 -7 -37 -7 -97 0 -88 3 -106 14 -102 11 4 13 -1 9 -22 -4 -20 -2 -26 8 -22 12 5 20 -17 15 -46 0 -4 7 -4 16 -1 12 5 15 2 10 -10 -4 -12 -1 -15 16 -11 25 4 67 -31 67 -56 0 -13 6 -16 25 -12 24 4 36 -13 15 -20 -6 -1 27 -1 72 0 78 4 85 2 106 -21 21 -23 23 -32 20 -110 -2 -55 1 -83 7 -80 13 5 69 -52 62 -64 -3 -4 14 -7 36 -5 50 3 92 -22 67 -39 -12 -8 -11 -9 5 -7 13 2 19 -2 17 -11 -2 -9 4 -12 21 -9 17 3 30 -2 43 -18 17 -20 28 -23 96 -24 85 0 118 -16 118 -56 0 -12 6 -25 13 -27 10 -4 10 -6 0 -6 -9 -1 -13 -24 -12 -83 0 -46 3 -77 6 -70 9 23 23 12 17 -13 -5 -19 -2 -25 10 -25 25 0 22 -91 -3 -114 -15 -13 -20 -14 -24 -4 -3 7 -6 -2 -6 -20 -1 -19 -5 -31 -11 -27 -6 4 -10 -9 -10 -30 0 -26 -4 -36 -12 -32 -9 3 -13 -8 -13 -38 0 -31 4 -42 15 -41 8 1 14 -4 13 -10 -1 -6 19 -11 48 -13 36 -1 49 2 47 11 -2 7 7 14 20 16 12 2 22 6 22 10 0 4 29 7 65 7 60 0 83 -7 53 -17 -7 -3 16 -3 51 0 l63 5 -4 -37 c-3 -25 0 -36 9 -36 7 0 13 -6 13 -14 0 -9 8 -12 25 -8 24 4 36 -13 14 -20 -6 -2 9 -3 34 -3 25 0 43 3 40 8 -2 4 -1 12 3 18 4 8 9 7 15 -2 6 -10 9 -4 9 17 0 32 22 60 38 50 5 -3 7 5 5 17 -4 21 -2 22 80 21 47 -1 89 -4 95 -8 6 -4 8 -27 5 -59 -6 -57 12 -92 42 -81 10 4 15 0 15 -11 0 -13 6 -16 21 -12 15 4 19 2 15 -9 -5 -12 1 -15 30 -12 28 2 40 -3 54 -20 10 -12 25 -22 33 -22 17 0 41 -26 34 -37 -3 -4 19 -8 48 -8 38 0 51 3 48 13 -3 7 3 12 16 12 12 0 21 -4 21 -10 0 -5 5 -10 10 -10 6 0 10 7 10 15 0 8 -5 15 -11 15 -5 0 -7 5 -4 10 4 6 15 0 27 -15 10 -14 26 -25 34 -25 8 0 14 -10 14 -26 0 -23 3 -26 25 -22 14 3 25 1 25 -3 0 -5 29 -9 65 -9 36 0 65 3 65 8 0 4 61 6 135 4 124 -3 134 -2 128 14 -5 14 -2 16 19 12 20 -4 25 -1 21 10 -5 11 0 13 18 8 13 -3 18 -3 11 0 -9 4 -7 14 9 36 18 24 27 29 51 26 21 -4 27 -1 24 9 -4 10 8 13 49 13 40 0 53 -3 49 -13 -7 -18 78 -9 92 11 6 8 15 12 21 9 6 -4 8 3 6 16 -6 30 19 50 56 45 20 -3 27 0 24 8 -5 15 85 24 92 9 2 -5 3 -1 2 10 -1 11 3 19 10 18 7 -2 10 3 7 10 -4 10 4 13 28 10 23 -3 29 -1 19 5 -9 7 -10 12 -2 16 6 4 14 5 19 3 4 -3 7 19 7 48 0 29 -3 51 -7 48 -5 -2 -13 -1 -19 3 -8 4 -7 9 2 16 10 6 6 7 -10 3 -19 -6 -23 -4 -18 8 4 10 1 14 -6 11 -8 -3 -12 7 -12 26 0 26 4 30 28 30 16 0 27 -5 27 -14 0 -9 7 -12 21 -9 14 4 25 0 31 -11 7 -13 22 -16 61 -15 l52 2 -3 60 c-3 50 -1 59 11 54 11 -4 13 0 10 14 -7 26 14 49 44 49 14 0 21 4 18 10 -3 6 1 10 9 10 8 0 27 11 41 24 23 21 26 31 23 75 -2 36 -7 50 -15 46 -9 -3 -13 6 -13 25 0 17 5 30 10 30 6 0 10 9 10 21 0 14 5 19 14 16 12 -5 14 3 13 34 -2 26 1 38 9 35 7 -3 11 15 13 51 1 36 -1 53 -8 48 -10 -5 -16 14 -12 37 0 4 -5 5 -13 2 -21 -8 -15 50 8 75 16 18 31 21 93 21 42 0 73 -4 73 -10 0 -6 28 -10 65 -10 37 0 65 4 65 10 0 6 12 10 26 10 16 0 23 4 18 11 -4 8 12 10 55 7 40 -2 60 1 57 7 -7 20 19 43 45 40 26 -3 26 -2 26 70 0 60 -3 72 -14 68 -12 -5 -14 7 -11 64 3 69 3 70 -22 69 -15 0 -24 5 -22 12 1 8 -16 12 -59 12 -37 0 -58 4 -54 10 4 7 -69 10 -213 10 -218 0 -219 0 -241 24 -13 14 -21 29 -17 34 3 5 -5 7 -19 4 -17 -3 -27 1 -31 12 -9 23 -159 24 -168 1 -4 -11 -20 -15 -67 -14 -40 1 -64 -3 -69 -11 -5 -9 -27 -11 -73 -8 -51 3 -64 1 -60 -10 4 -10 -8 -12 -58 -10 -41 2 -63 7 -62 14 1 7 -6 10 -16 7 -22 -6 -74 36 -67 54 3 7 -1 10 -10 6 -8 -3 -14 1 -14 11 0 10 -9 16 -25 16 -26 0 -34 15 -12 23 6 3 -3 3 -20 0 -21 -3 -33 -1 -33 6 0 7 -21 11 -55 11 -42 0 -55 -3 -55 -15 0 -8 -4 -15 -9 -15 -5 0 -11 -9 -14 -20 -4 -14 -11 -18 -24 -14 -15 5 -15 4 -3 -5 22 -15 5 -24 -20 -11 -17 9 -25 9 -34 -1 -8 -9 -7 -11 7 -6 22 8 22 -5 -1 -26 -23 -21 -132 -24 -132 -4 0 8 -21 12 -70 12 -49 0 -70 -4 -70 -12 0 -9 -19 -13 -61 -13 -59 0 -61 1 -57 24 4 17 1 23 -9 19 -10 -4 -13 6 -13 40 0 42 -2 46 -27 50 -16 2 -4 5 25 6 l52 1 0 -43 0 -42 45 3 c25 2 45 8 45 13 0 5 21 9 46 9 33 0 45 -4 41 -12 -3 -10 16 -12 81 -10 71 3 89 7 100 23 7 10 19 19 27 19 17 0 28 31 18 55 -5 14 -3 17 9 13 11 -5 15 0 14 20 0 17 4 26 13 24 7 -1 10 1 7 6 -9 16 63 77 87 74 21 -3 22 1 19 39 -6 58 -35 89 -84 89 -25 0 -41 -5 -44 -15 -5 -11 -23 -15 -79 -15 -49 0 -75 -4 -78 -12 -4 -10 -6 -10 -6 0 -1 7 -14 12 -31 12 -28 0 -40 13 -22 23 4 2 1 2 -6 0 -17 -4 -45 24 -37 37 3 5 0 8 -7 5 -10 -4 -13 9 -11 54 1 48 -1 59 -13 54 -11 -4 -14 5 -14 44 0 27 5 54 12 61 6 6 8 15 3 19 -4 5 -10 2 -12 -4 -7 -18 -30 -16 -37 3 -3 9 -6 29 -6 45 0 18 -4 28 -10 24 -6 -4 -10 8 -10 29 0 24 4 34 13 31 8 -4 12 7 12 37 l0 43 53 3 c43 3 53 6 51 20 -3 25 11 52 27 52 10 0 14 14 14 51 0 31 -4 48 -10 44 -5 -3 -10 3 -10 14 0 12 -7 21 -15 21 -11 0 -12 5 -5 25 7 20 7 25 -3 23 -15 -4 -67 36 -67 51 0 6 -9 11 -19 11 -24 0 -36 16 -19 24 7 3 2 3 -11 0 -19 -5 -23 -3 -18 9 4 11 2 14 -9 10 -9 -3 -14 1 -14 12 0 12 -6 16 -20 12 -26 -7 -44 17 -37 49 3 18 1 24 -9 20 -10 -4 -14 4 -14 30 0 19 -4 33 -9 30 -5 -3 -11 3 -14 13 -5 22 44 77 57 64 4 -5 14 0 21 11 8 10 18 15 23 12 6 -4 9 5 7 19 -1 14 3 25 9 24 23 -3 37 1 32 9 -8 13 50 65 63 58 7 -5 8 -1 4 10 -5 13 -3 16 10 11 11 -4 14 -2 11 8 -4 10 3 12 30 10 27 -3 36 0 36 12 0 12 10 14 44 12 32 -3 42 -1 39 9 -4 8 5 12 25 12 18 0 32 6 36 16 3 9 13 14 21 11 9 -4 12 -1 9 7 -4 10 2 12 21 8 17 -3 25 0 23 8 -2 9 26 11 109 10 102 -1 112 1 106 16 -5 14 0 16 39 13 36 -3 44 -1 40 10 -4 10 -1 13 11 8 12 -4 24 3 39 23 12 17 28 30 36 30 10 0 13 7 9 21 -4 16 -2 19 10 15 12 -5 14 -1 10 19 -3 20 -1 25 10 21 8 -4 11 -1 7 5 -10 17 37 59 67 59 19 0 27 4 24 13 -3 6 6 21 20 31 16 12 25 29 25 47 0 29 0 29 -65 29 -47 0 -63 -3 -60 -12 4 -10 -35 -13 -175 -13 -140 0 -179 3 -175 13 3 9 -14 12 -65 12 -40 0 -70 -4 -70 -10 0 -5 -25 -10 -56 -10 -34 0 -53 4 -49 10 4 6 -5 10 -19 10 -14 0 -26 -6 -26 -12 0 -9 -2 -10 -8 -2 -9 15 -86 20 -247 16z"/>
 <path d="M7246 4507 c3 -9 -18 -11 -76 -9 -66 3 -81 1 -86 -12 -4 -10 -18 -16 -40 -16 -19 0 -34 -5 -34 -11 0 -7 -10 -9 -24 -7 -17 4 -23 1 -19 -9 4 -9 -4 -13 -27 -13 -22 0 -31 4 -27 13 3 9 -27 12 -134 10 -124 -2 -140 -4 -159 -23 -11 -11 -31 -20 -45 -20 -16 0 -23 -4 -19 -13 4 -10 -3 -12 -26 -9 -24 3 -30 1 -30 -14 0 -17 -1 -16 -14 2 -11 14 -11 21 -3 26 7 4 -7 8 -30 8 -32 0 -41 3 -37 14 4 10 -2 12 -22 8 -21 -4 -26 -2 -22 9 4 11 -7 14 -53 14 -33 0 -54 -1 -49 -3 21 -7 9 -22 -18 -22 -15 0 -33 -5 -39 -11 -7 -7 -59 -10 -142 -10 -102 1 -129 -1 -126 -11 4 -10 -10 -12 -57 -10 -46 2 -59 0 -48 -7 16 -11 12 -13 -37 -13 -22 -1 -30 -5 -26 -14 4 -10 -3 -14 -21 -14 -14 0 -35 -9 -46 -20 -13 -13 -33 -20 -60 -20 -27 0 -40 -4 -40 -13 0 -8 -11 -20 -25 -27 -14 -7 -25 -22 -25 -32 0 -10 -4 -18 -10 -18 -5 0 -10 -10 -10 -22 -1 -33 -44 -62 -83 -55 l-32 5 0 -94 c0 -85 6 -115 17 -82 3 9 9 8 22 -5 9 -9 15 -21 11 -27 -3 -5 0 -8 7 -5 10 4 12 -12 9 -76 -3 -68 0 -84 13 -91 17 -10 22 -48 6 -48 -5 0 -10 -4 -10 -10 0 -5 7 -10 15 -10 8 0 15 3 15 8 0 4 45 6 99 5 74 -1 99 1 95 10 -2 8 7 12 26 13 21 1 30 -3 26 -12 -3 -9 5 -12 29 -11 27 1 43 -6 70 -31 19 -19 35 -39 35 -46 0 -7 11 -23 25 -36 13 -12 22 -27 18 -32 -3 -6 17 -9 51 -6 40 2 56 -1 56 -9 0 -25 40 -53 75 -53 19 0 35 -4 35 -10 0 -5 14 -10 30 -10 19 0 30 -5 30 -14 0 -11 18 -14 84 -14 69 0 84 2 79 14 -4 10 4 14 32 14 24 0 34 4 29 11 -4 8 9 10 44 8 36 -3 48 -1 45 9 -4 8 6 12 32 12 21 0 34 4 30 10 -4 6 15 10 49 10 40 0 54 -3 51 -12 -4 -10 13 -12 70 -10 47 2 81 -1 90 -8 9 -8 15 -8 20 0 3 5 -1 13 -9 16 -9 3 -13 10 -10 16 3 5 11 3 17 -6 8 -10 35 -16 87 -18 l75 -3 0 41 c0 31 -3 40 -14 36 -10 -4 -12 4 -9 37 3 31 0 40 -10 36 -10 -4 -12 8 -10 53 3 54 4 57 31 60 21 3 27 8 27 29 0 17 4 24 14 20 11 -4 14 4 12 39 -1 43 0 44 29 44 20 0 25 3 17 9 -10 6 -10 11 3 21 20 16 67 19 78 5 5 -5 6 0 2 12 -5 19 -2 21 29 19 20 -2 33 1 30 5 -3 5 4 9 14 9 11 0 22 7 26 15 3 9 18 15 36 15 16 0 30 5 30 10 0 6 9 10 20 10 11 0 20 5 20 10 0 6 13 10 29 10 17 0 33 5 36 10 3 6 25 10 48 10 31 0 38 3 27 10 -14 9 -7 14 13 11 4 -1 21 14 37 31 24 27 29 42 30 81 0 26 -4 47 -9 47 -4 0 -7 18 -5 39 2 31 -1 39 -12 34 -10 -4 -14 4 -14 31 0 29 -8 43 -45 77 -25 23 -44 48 -41 55 4 9 -13 12 -65 11 -49 -2 -68 1 -65 10 3 8 -18 11 -69 11 -51 0 -72 -3 -69 -11z"/>
 <path d="M4720 4244 c0 -8 38 -42 69 -64 11 -8 21 -20 21 -27 0 -7 5 -13 10 -13 20 0 9 17 -40 63 -49 46 -60 54 -60 41z"/>
 </g>
<g id="layer102" fill="#837764" stroke="none">
 <path d="M4890 7620 c-58 -5 -170 -23 -250 -40 -80 -17 -180 -38 -223 -45 -162 -30 -620 -172 -777 -241 -43 -18 -83 -34 -88 -34 -24 0 -412 -275 -412 -292 0 -10 -2 -11 100 52 168 104 230 139 337 188 61 29 117 52 124 52 7 0 67 18 134 40 67 21 142 42 166 46 l44 6 -58 -37 c-32 -20 -88 -48 -125 -62 -113 -43 -234 -83 -249 -83 -7 0 -77 -26 -155 -58 -148 -60 -187 -85 -356 -225 -78 -64 -85 -68 -120 -62 -36 6 -41 3 -140 -87 -191 -173 -494 -491 -597 -628 -22 -29 -62 -81 -90 -116 -193 -245 -288 -404 -320 -535 -16 -62 -76 -277 -116 -410 -21 -73 -23 -89 -10 -89 11 0 31 54 31 84 0 12 16 59 36 106 19 47 44 105 53 130 48 118 133 279 157 295 14 9 27 15 29 13 2 -2 -19 -39 -45 -83 -27 -44 -50 -85 -50 -91 0 -6 -17 -47 -37 -90 -20 -43 -46 -115 -58 -159 -12 -44 -36 -129 -53 -190 -54 -192 -120 -449 -126 -489 -10 -76 12 -19 53 134 56 211 137 457 183 559 21 46 38 87 38 92 0 18 169 353 255 504 91 159 256 325 695 699 43 37 -101 -125 -201 -225 -52 -53 -114 -106 -136 -117 -54 -28 -123 -113 -268 -335 -174 -267 -285 -476 -388 -732 -100 -248 -123 -357 -157 -735 -24 -269 -26 -496 -4 -657 8 -65 19 -154 24 -197 8 -68 44 -230 106 -473 9 -35 22 -63 29 -63 9 0 4 34 -16 123 -49 217 -99 499 -110 622 -16 178 2 435 55 790 14 88 27 181 31 208 3 26 18 80 32 120 14 39 35 101 48 137 30 85 186 406 236 485 21 34 39 65 39 69 0 4 20 39 45 77 25 38 45 72 45 75 0 7 204 315 271 409 35 49 91 109 145 155 48 41 152 133 231 203 79 70 143 124 143 119 0 -5 -8 -16 -17 -23 -16 -14 -103 -142 -103 -153 0 -22 43 5 116 74 146 138 243 208 406 294 43 23 125 74 183 114 57 39 107 72 110 72 2 0 28 15 57 33 104 64 459 227 497 227 6 0 62 15 124 34 199 61 423 90 677 90 325 0 630 -50 925 -154 44 -15 103 -36 130 -45 175 -62 501 -224 715 -356 421 -260 820 -680 1071 -1124 83 -147 259 -530 259 -563 0 -5 20 -70 45 -143 25 -74 45 -143 45 -155 0 -12 11 -67 25 -124 58 -234 68 -336 68 -710 0 -309 -2 -358 -22 -474 -117 -692 -386 -1235 -845 -1705 -108 -110 -328 -310 -414 -376 -29 -22 -76 -58 -105 -81 -48 -37 -94 -68 -247 -166 -149 -95 -383 -205 -583 -274 -350 -120 -768 -169 -1114 -130 -185 20 -389 60 -538 103 -66 20 -149 44 -185 54 -36 10 -103 34 -149 54 -45 19 -87 35 -93 35 -9 0 -211 89 -251 111 -10 6 -66 34 -125 64 -226 113 -416 275 -744 632 -148 161 -254 250 -338 282 -172 66 -259 46 -309 -69 -31 -71 -36 -134 -18 -200 21 -77 57 -172 70 -189 10 -11 8 -13 -13 -6 -14 4 -47 19 -73 32 -53 26 -70 24 -44 -5 10 -10 17 -22 17 -26 0 -4 23 -37 50 -74 28 -37 65 -87 83 -112 69 -95 155 -199 247 -299 149 -164 221 -227 384 -343 48 -35 114 -81 145 -103 49 -35 95 -63 301 -185 196 -116 651 -283 910 -335 365 -72 478 -84 815 -85 353 -1 532 16 783 76 57 13 112 24 121 24 29 0 349 105 466 153 193 79 362 165 514 261 36 23 72 46 81 51 85 52 192 132 362 270 95 78 345 323 428 421 127 149 146 172 198 240 103 134 138 183 220 310 98 151 181 290 193 321 4 12 19 39 32 60 26 41 121 241 186 391 48 110 114 336 130 442 6 41 27 174 46 295 51 331 69 485 56 485 -4 0 -21 -39 -39 -87 -21 -57 -30 -74 -27 -50 13 81 4 362 -15 529 -11 96 -36 237 -55 318 -20 80 -40 168 -44 195 -5 28 -28 107 -50 176 -23 69 -41 132 -41 140 0 8 -20 66 -45 129 -25 63 -45 119 -45 124 0 5 -18 50 -41 100 -189 423 -361 683 -653 985 -78 81 -296 277 -395 356 -35 28 -80 64 -100 80 -77 64 -258 200 -349 263 -152 104 -357 210 -557 290 -116 46 -385 132 -414 132 -10 0 -66 11 -123 24 -253 59 -329 67 -698 71 -190 2 -392 0 -450 -5z m-1030 -554 c0 -9 -305 -203 -383 -242 -46 -24 -115 -68 -242 -155 -68 -47 -56 -33 65 72 118 104 130 111 355 226 225 114 205 104 205 99z"/>
 <path d="M2990 6228 l0 -61 -74 -69 c-139 -128 -198 -249 -199 -408 0 -48 7 -113 17 -149 19 -75 82 -211 150 -325 53 -90 54 -86 -14 -171 -77 -96 -86 -189 -31 -328 l29 -72 417 -5 417 -5 37 -115 c45 -138 42 -132 196 -390 67 -113 161 -272 210 -355 95 -163 128 -205 158 -205 27 0 104 46 117 69 15 30 -3 68 -151 316 -75 127 -145 244 -155 262 -11 17 -45 75 -78 130 -45 76 -126 260 -126 288 0 2 39 6 87 7 l88 3 29 75 c24 59 30 91 30 150 1 85 -10 111 -81 203 l-45 57 61 105 c122 208 168 350 158 485 -12 147 -66 251 -192 372 -73 70 -74 71 -80 134 l-7 64 -484 0 -484 0 0 -62z m368 -173 c10 -28 12 -67 8 -126 -7 -114 -22 -178 -61 -274 -18 -44 -39 -108 -45 -142 -19 -94 -9 -233 23 -321 30 -85 30 -84 -68 -80 -48 2 -70 7 -76 18 -4 8 -20 42 -34 75 -14 33 -51 104 -82 158 -102 179 -132 306 -100 418 22 74 68 132 163 206 44 33 90 73 104 87 22 25 30 27 90 24 l65 -3 13 -40z m-67 -1021 c-11 -14 -37 -38 -58 -53 -32 -23 -42 -39 -56 -90 l-17 -61 -83 0 c-46 0 -86 3 -90 6 -12 12 41 99 98 162 l57 62 85 0 84 0 -20 -26z"/>
 </g>
<g id="layer103" fill="#83a8ff" stroke="none">
 <path d="M4890 7620 c-58 -5 -170 -23 -250 -40 -80 -17 -180 -38 -223 -45 -162 -30 -620 -172 -777 -241 -43 -18 -83 -34 -88 -34 -24 0 -412 -275 -412 -292 0 -10 -2 -11 100 52 168 104 230 139 337 188 61 29 117 52 124 52 7 0 67 18 134 40 67 21 142 42 166 46 l44 6 -58 -37 c-32 -20 -88 -48 -125 -62 -113 -43 -234 -83 -249 -83 -7 0 -77 -26 -155 -58 -148 -60 -187 -85 -356 -225 -78 -64 -85 -68 -120 -62 -36 6 -41 3 -140 -87 -191 -173 -494 -491 -597 -628 -22 -29 -62 -81 -90 -116 -193 -245 -288 -404 -320 -535 -16 -62 -76 -277 -116 -410 -21 -73 -23 -89 -10 -89 11 0 31 54 31 84 0 12 16 59 36 106 19 47 44 105 53 130 48 118 133 279 157 295 14 9 27 15 29 13 2 -2 -19 -39 -45 -83 -27 -44 -50 -85 -50 -91 0 -6 -17 -47 -37 -90 -20 -43 -46 -115 -58 -159 -12 -44 -36 -129 -53 -190 -54 -192 -120 -449 -126 -489 -10 -76 12 -19 53 134 56 211 137 457 183 559 21 46 38 87 38 92 0 18 169 353 255 504 91 159 256 325 695 699 43 37 -101 -125 -201 -225 -52 -53 -114 -106 -136 -117 -54 -28 -123 -113 -268 -335 -174 -267 -285 -476 -388 -732 -100 -248 -123 -357 -157 -735 -24 -269 -26 -496 -4 -657 8 -65 19 -154 24 -197 8 -68 44 -230 106 -473 9 -35 22 -63 29 -63 9 0 4 34 -16 123 -49 217 -99 499 -110 622 -16 178 2 435 55 790 14 88 27 181 31 208 3 26 18 80 32 120 14 39 35 101 48 137 30 85 186 406 236 485 21 34 39 65 39 69 0 4 20 39 45 77 25 38 45 72 45 75 0 7 204 315 271 409 35 49 91 109 145 155 48 41 152 133 231 203 79 70 143 124 143 119 0 -5 -8 -16 -17 -23 -16 -14 -103 -142 -103 -153 0 -22 43 5 116 74 146 138 243 208 406 294 43 23 125 74 183 114 57 39 107 72 110 72 2 0 28 15 57 33 104 64 459 227 497 227 6 0 62 15 124 34 199 61 423 90 677 90 325 0 630 -50 925 -154 44 -15 103 -36 130 -45 175 -62 501 -224 715 -356 421 -260 820 -680 1071 -1124 83 -147 259 -530 259 -563 0 -5 20 -70 45 -143 25 -74 45 -143 45 -155 0 -12 11 -67 25 -124 58 -234 68 -336 68 -710 0 -309 -2 -358 -22 -474 -117 -692 -386 -1235 -845 -1705 -108 -110 -328 -310 -414 -376 -29 -22 -76 -58 -105 -81 -48 -37 -94 -68 -247 -166 -149 -95 -383 -205 -583 -274 -350 -120 -768 -169 -1114 -130 -185 20 -389 60 -538 103 -66 20 -149 44 -185 54 -36 10 -103 34 -149 54 -45 19 -87 35 -93 35 -9 0 -211 89 -251 111 -10 6 -66 34 -125 64 -226 113 -416 275 -744 632 -148 161 -254 250 -338 282 -172 66 -259 46 -309 -69 -31 -71 -36 -134 -18 -200 21 -77 57 -172 70 -189 10 -11 8 -13 -13 -6 -14 4 -47 19 -73 32 -53 26 -70 24 -44 -5 10 -10 17 -22 17 -26 0 -4 23 -37 50 -74 28 -37 65 -87 83 -112 69 -95 155 -199 247 -299 149 -164 221 -227 384 -343 48 -35 114 -81 145 -103 49 -35 95 -63 301 -185 196 -116 651 -283 910 -335 365 -72 478 -84 815 -85 353 -1 532 16 783 76 57 13 112 24 121 24 29 0 349 105 466 153 193 79 362 165 514 261 36 23 72 46 81 51 85 52 192 132 362 270 95 78 345 323 428 421 127 149 146 172 198 240 103 134 138 183 220 310 98 151 181 290 193 321 4 12 19 39 32 60 26 41 121 241 186 391 48 110 114 336 130 442 6 41 27 174 46 295 51 331 69 485 56 485 -4 0 -21 -39 -39 -87 -21 -57 -30 -74 -27 -50 13 81 4 362 -15 529 -11 96 -36 237 -55 318 -20 80 -40 168 -44 195 -5 28 -28 107 -50 176 -23 69 -41 132 -41 140 0 8 -20 66 -45 129 -25 63 -45 119 -45 124 0 5 -18 50 -41 100 -189 423 -361 683 -653 985 -78 81 -296 277 -395 356 -35 28 -80 64 -100 80 -77 64 -258 200 -349 263 -152 104 -357 210 -557 290 -116 46 -385 132 -414 132 -10 0 -66 11 -123 24 -253 59 -329 67 -698 71 -190 2 -392 0 -450 -5z m-1030 -554 c0 -9 -305 -203 -383 -242 -46 -24 -115 -68 -242 -155 -68 -47 -56 -33 65 72 118 104 130 111 355 226 225 114 205 104 205 99z"/>
 </g>

</svg>